STARTFONT 2.1
FONT -FontForge-Monoton-Book-R-Normal--20-200-72-72-P-136-ISO10646-1
SIZE 20 72 72
FONTBOUNDINGBOX 37 31 -3 -8
COMMENT "Generated by fontforge, http://fontforge.sourceforge.net"
COMMENT "Copyright (c) 2011 by vernon adams. All rights reserved."
STARTPROPERTIES 40
FOUNDRY "FontForge"
FAMILY_NAME "Monoton"
WEIGHT_NAME "Book"
SLANT "R"
SETWIDTH_NAME "Normal"
ADD_STYLE_NAME ""
PIXEL_SIZE 20
POINT_SIZE 200
RESOLUTION_X 72
RESOLUTION_Y 72
SPACING "P"
AVERAGE_WIDTH 136
CHARSET_REGISTRY "ISO10646"
CHARSET_ENCODING "1"
FONTNAME_REGISTRY ""
CHARSET_COLLECTIONS "ISO8859-2 ISO8859-9 ISO8859-4 ISO10646-1"
FONT_NAME "Monoton-Regular"
FACE_NAME "Monoton"
COPYRIGHT "Copyright (c) 2011 by vernon adams. All rights reserved."
FONT_VERSION "1.000"
FONT_ASCENT 16
FONT_DESCENT 4
UNDERLINE_POSITION -1
UNDERLINE_THICKNESS 1
X_HEIGHT 13
CAP_HEIGHT 15
DEFAULT_CHAR 1
RAW_ASCENT 799
RAW_DESCENT 200
NORM_SPACE 2
RELATIVE_WEIGHT 40
RELATIVE_SETWIDTH 50
SUPERSCRIPT_X 0
SUPERSCRIPT_Y 6
SUPERSCRIPT_SIZE 11
SUBSCRIPT_X 0
SUBSCRIPT_Y 1
SUBSCRIPT_SIZE 11
AVG_LOWERCASE_WIDTH 147
AVG_UPPERCASE_WIDTH 159
ENDPROPERTIES
CHARS 372
STARTCHAR glyph1.dup1
ENCODING 0
SWIDTH 108 0
DWIDTH 2 0
BBX 1 1 0 0
BITMAP
00
ENDCHAR
STARTCHAR uni0002
ENCODING 2
SWIDTH 108 0
DWIDTH 2 0
BBX 1 1 0 0
BITMAP
00
ENDCHAR
STARTCHAR uni0009
ENCODING 9
SWIDTH 108 0
DWIDTH 2 0
BBX 1 1 0 0
BITMAP
00
ENDCHAR
STARTCHAR uni000A
ENCODING 10
SWIDTH 108 0
DWIDTH 2 0
BBX 1 1 0 0
BITMAP
00
ENDCHAR
STARTCHAR uni000D
ENCODING 13
SWIDTH 108 0
DWIDTH 2 0
BBX 1 1 0 0
BITMAP
00
ENDCHAR
STARTCHAR space
ENCODING 32
SWIDTH 108 0
DWIDTH 2 0
BBX 1 1 0 0
BITMAP
00
ENDCHAR
STARTCHAR exclam
ENCODING 33
SWIDTH 336 0
DWIDTH 7 0
BBX 5 17 1 -1
BITMAP
D8
D8
D8
D8
D8
D8
D8
D8
D8
D8
D8
D8
00
F8
F8
00
F8
ENDCHAR
STARTCHAR quotedbl
ENCODING 34
SWIDTH 538 0
DWIDTH 11 0
BBX 9 6 1 10
BITMAP
E580
E580
E580
E580
E580
E580
ENDCHAR
STARTCHAR numbersign
ENCODING 35
SWIDTH 1014 0
DWIDTH 20 0
BBX 20 18 0 -1
BITMAP
01A340
01C340
02C580
1EFDF0
074E90
1BB6E0
3DFB60
058B00
068D00
070D00
0B1600
0B1600
7DFBC0
6EDB80
162C00
F7EF80
1A3400
1C3400
ENDCHAR
STARTCHAR dollar
ENCODING 36
SWIDTH 686 0
DWIDTH 14 0
BBX 13 22 0 -3
BITMAP
0500
0500
0FC0
13B0
2C68
57D0
6BA0
7440
7780
6860
57D0
2FA8
1C58
03D8
08D8
1758
2FA8
DFD0
3060
0F80
0500
0500
ENDCHAR
STARTCHAR percent
ENCODING 37
SWIDTH 1504 0
DWIDTH 30 0
BBX 29 18 1 -1
BITMAP
1F000000
2482C000
5B434000
AEA38000
D5658000
EAE68000
EAE68FC0
DD6717A0
BEAB2A50
714D55B0
6E8D6B68
1F166D68
00166D68
001A5AB0
001A5750
002C2FA0
002C1840
00340780
ENDCHAR
STARTCHAR ampersand
ENCODING 38
SWIDTH 1029 0
DWIDTH 21 0
BBX 19 16 1 0
BITMAP
1FD680
6FD680
B7D680
B81680
DFD680
E81680
DFF6E0
B81680
DFF6E0
EFF6E0
E81680
DFEEC0
BFEDC0
500B00
6FE6C0
1FE1C0
ENDCHAR
STARTCHAR quotesingle
ENCODING 39
SWIDTH 257 0
DWIDTH 5 0
BBX 3 6 1 10
BITMAP
E0
E0
E0
E0
E0
E0
ENDCHAR
STARTCHAR parenleft
ENCODING 40
SWIDTH 410 0
DWIDTH 8 0
BBX 7 18 1 -1
BITMAP
1E
26
58
AE
D6
E8
E8
E8
E8
E8
E8
E8
E8
DE
B8
66
5E
3E
ENDCHAR
STARTCHAR parenright
ENCODING 41
SWIDTH 408 0
DWIDTH 8 0
BBX 6 18 1 -1
BITMAP
E0
90
68
D4
AC
5C
5C
5C
5C
5C
5C
5C
5C
DC
2C
D4
E8
F0
ENDCHAR
STARTCHAR asterisk
ENCODING 42
SWIDTH 664 0
DWIDTH 13 0
BBX 12 12 1 2
BITMAP
0D00
4D40
2D80
DD60
B5B0
7EC0
6E40
B5B0
DD60
6DC0
0D00
0D00
ENDCHAR
STARTCHAR plus
ENCODING 43
SWIDTH 601 0
DWIDTH 12 0
BBX 10 9 1 4
BITMAP
1D00
1D00
1D00
EDC0
FDC0
1D00
EDC0
1D00
1D00
ENDCHAR
STARTCHAR comma
ENCODING 44
SWIDTH 252 0
DWIDTH 5 0
BBX 3 7 1 -3
BITMAP
E0
E0
E0
60
E0
20
C0
ENDCHAR
STARTCHAR hyphen
ENCODING 45
SWIDTH 473 0
DWIDTH 9 0
BBX 8 4 1 6
BITMAP
FF
FF
00
FF
ENDCHAR
STARTCHAR period
ENCODING 46
SWIDTH 255 0
DWIDTH 5 0
BBX 3 4 1 0
BITMAP
E0
00
E0
E0
ENDCHAR
STARTCHAR slash
ENCODING 47
SWIDTH 447 0
DWIDTH 9 0
BBX 9 18 0 -2
BITMAP
0680
0B00
0B00
0D00
0D00
1600
1600
1A00
1A00
2C00
2C00
3400
3400
5800
5800
6800
7000
B000
ENDCHAR
STARTCHAR zero
ENCODING 48
SWIDTH 843 0
DWIDTH 17 0
BBX 15 18 1 -1
BITMAP
07C0
1BB0
2C68
57D4
ABAC
B45A
D836
E836
E82E
E82E
E836
D836
B4DA
6B2C
57D4
2FE8
1830
07C0
ENDCHAR
STARTCHAR one
ENCODING 49
SWIDTH 426 0
DWIDTH 9 0
BBX 7 16 1 0
BITMAP
FE
FE
C4
3A
3A
3A
3A
3A
3A
3A
3A
3A
3A
3A
3A
3A
ENDCHAR
STARTCHAR two
ENCODING 50
SWIDTH 583 0
DWIDTH 12 0
BBX 11 17 0 0
BITMAP
FF00
1C80
6340
7EA0
3D60
4360
0360
05A0
0B40
0D80
1A80
2D00
5600
7FC0
0000
7FC0
7FC0
ENDCHAR
STARTCHAR three
ENCODING 51
SWIDTH 612 0
DWIDTH 12 0
BBX 12 18 0 -1
BITMAP
FF00
1CC0
63A0
7F60
3CD0
42D0
1FD0
01E0
1F60
1EA0
0150
1ED0
62D0
1D50
7EA0
7F40
C180
3E00
ENDCHAR
STARTCHAR four
ENCODING 52
SWIDTH 622 0
DWIDTH 12 0
BBX 11 16 1 0
BITMAP
0DC0
1680
1A80
2D00
3500
5600
6A00
ACC0
B4C0
4000
FFE0
FFE0
FFE0
0000
00C0
00C0
ENDCHAR
STARTCHAR five
ENCODING 53
SWIDTH 691 0
DWIDTH 14 0
BBX 13 17 0 -1
BITMAP
7FF0
7FF0
17F0
6800
6800
6FC0
6B20
6CD0
6FA8
6F58
00B8
08B8
1758
2FA8
DFD0
3060
0F80
ENDCHAR
STARTCHAR six
ENCODING 54
SWIDTH 781 0
DWIDTH 16 0
BBX 14 18 1 -1
BITMAP
0FC0
3330
5CE8
AFD0
B7E0
D800
EFC0
E9B0
EE68
EFD4
EBAC
EC6C
DCEC
BB34
77D4
6FE8
1830
07C0
ENDCHAR
STARTCHAR seven
ENCODING 55
SWIDTH 631 0
DWIDTH 13 0
BBX 11 16 1 0
BITMAP
FF60
FBA0
FDA0
05C0
06C0
0740
0B40
0B80
0D80
0E80
1680
1700
1B00
1B00
2D00
2E00
ENDCHAR
STARTCHAR eight
ENCODING 56
SWIDTH 808 0
DWIDTH 16 0
BBX 15 18 1 -1
BITMAP
1FE0
2790
5868
AFD4
D7AC
E85A
EFDA
D83C
A7EC
DFD4
F02C
EFDA
E85A
D7AC
AFD4
5FE8
3010
0FE0
ENDCHAR
STARTCHAR nine
ENCODING 57
SWIDTH 782 0
DWIDTH 16 0
BBX 14 18 1 -1
BITMAP
0FC0
3720
58D0
AFA8
D754
E8AC
E8EC
D76C
AFEC
5FEC
30EC
0F6C
08B4
1754
2FA8
5FD0
3060
0F80
ENDCHAR
STARTCHAR colon
ENCODING 58
SWIDTH 262 0
DWIDTH 5 0
BBX 3 9 1 3
BITMAP
E0
E0
00
E0
00
00
E0
E0
E0
ENDCHAR
STARTCHAR semicolon
ENCODING 59
SWIDTH 261 0
DWIDTH 5 0
BBX 3 12 1 0
BITMAP
E0
E0
00
E0
00
00
E0
E0
60
60
A0
C0
ENDCHAR
STARTCHAR less
ENCODING 60
SWIDTH 670 0
DWIDTH 13 0
BBX 12 14 1 1
BITMAP
0070
03B0
0CC0
7770
9BB0
ECC0
F700
9B00
E6E0
FD90
3370
0EE0
0190
0070
ENDCHAR
STARTCHAR equal
ENCODING 61
SWIDTH 473 0
DWIDTH 9 0
BBX 8 9 1 3
BITMAP
FF
FF
00
FF
00
00
FF
FF
FF
ENDCHAR
STARTCHAR greater
ENCODING 62
SWIDTH 670 0
DWIDTH 13 0
BBX 12 14 1 1
BITMAP
C000
B800
7700
CCC0
BBB0
76E0
0B30
1DD0
66E0
BB30
DDC0
6600
B800
C000
ENDCHAR
STARTCHAR question
ENCODING 63
SWIDTH 693 0
DWIDTH 14 0
BBX 13 17 0 0
BITMAP
1F80
6760
B8D0
7FA8
0F58
00B8
00B8
3758
37A8
37D0
3460
3780
3400
3C00
0000
3C00
3C00
ENDCHAR
STARTCHAR at
ENCODING 64
SWIDTH 1076 0
DWIDTH 22 0
BBX 20 19 1 -1
BITMAP
00F000
070E00
1BFD00
2DF280
560D40
68F2A0
B30960
D5F4D0
D66AB0
E696B0
E716B0
D6F6B0
D5F7B0
B31450
68EBA0
5607C0
2DF000
1BF000
07F000
ENDCHAR
STARTCHAR A
ENCODING 65
SWIDTH 936 0
DWIDTH 19 0
BBX 18 16 0 0
BITMAP
03B000
036800
02D800
05B400
07B400
0B6C00
0D5A00
0DB600
16AD00
1B2D00
2DFB00
351680
37ED80
5BFB40
6C0B40
B406C0
ENDCHAR
STARTCHAR B
ENCODING 66
SWIDTH 862 0
DWIDTH 17 0
BBX 16 16 1 0
BITMAP
FFF8
FFF4
CFCA
D036
DFED
D82D
DFED
D81E
DFF6
DFED
D82D
DFED
DFF6
D81A
DFEC
DFF0
ENDCHAR
STARTCHAR C
ENCODING 67
SWIDTH 852 0
DWIDTH 17 0
BBX 16 18 1 -1
BITMAP
07E0
09D8
3634
5BEB
6DD4
B628
D810
E800
E800
E800
E800
D410
AE68
5595
2BEA
17F4
0C18
03E0
ENDCHAR
STARTCHAR D
ENCODING 68
SWIDTH 886 0
DWIDTH 18 0
BBX 16 16 1 0
BITMAP
FFF0
FFE8
CF94
D06A
DFD5
D82D
D81B
D81B
D81B
D81B
D82D
DFD6
DFEA
C034
FFC8
FFF0
ENDCHAR
STARTCHAR E
ENCODING 69
SWIDTH 706 0
DWIDTH 14 0
BBX 12 16 1 0
BITMAP
DFF0
DFF0
DFF0
D800
D800
D800
DF80
DF80
D800
DF80
D800
D800
DFF0
D800
DFF0
DFF0
ENDCHAR
STARTCHAR F
ENCODING 70
SWIDTH 683 0
DWIDTH 14 0
BBX 12 16 1 0
BITMAP
DFF0
DFF0
DFF0
D800
D800
D800
D800
DFF0
DFF0
D800
DFF0
D800
D800
D800
D800
D800
ENDCHAR
STARTCHAR G
ENCODING 71
SWIDTH 908 0
DWIDTH 18 0
BBX 16 18 1 -1
BITMAP
07E0
09D8
3634
5BEB
6DD4
B628
D810
E800
E800
E817
E817
D817
B637
6DD7
5BF7
37F7
0C17
03E0
ENDCHAR
STARTCHAR H
ENCODING 72
SWIDTH 901 0
DWIDTH 18 0
BBX 16 16 1 0
BITMAP
D81B
D81B
D81B
D81B
D81B
D81B
DFFB
DFFB
D81B
DFFB
D81B
D81B
D81B
D81B
D81B
D81B
ENDCHAR
STARTCHAR I
ENCODING 73
SWIDTH 338 0
DWIDTH 7 0
BBX 5 16 1 0
BITMAP
D8
D8
D8
D8
D8
D8
D8
D8
D8
D8
D8
D8
D8
D8
D8
D8
ENDCHAR
STARTCHAR J
ENCODING 74
SWIDTH 434 0
DWIDTH 9 0
BBX 8 17 0 -1
BITMAP
1B
1B
1B
1B
1B
1B
1B
1B
1B
1B
1B
2D
D5
EA
F4
08
F0
ENDCHAR
STARTCHAR K
ENCODING 75
SWIDTH 815 0
DWIDTH 16 0
BBX 15 16 1 0
BITMAP
D87A
D8AC
D8D4
D958
D9A8
DAB0
DB50
DDA0
DD60
DAD0
DAB0
D968
D958
D8B4
D8AC
D85A
ENDCHAR
STARTCHAR L
ENCODING 76
SWIDTH 604 0
DWIDTH 12 0
BBX 10 16 1 0
BITMAP
D800
D800
D800
D800
D800
D800
D800
D800
D800
D800
D800
D800
DFC0
D800
DFC0
DFC0
ENDCHAR
STARTCHAR M
ENCODING 77
SWIDTH 920 0
DWIDTH 18 0
BBX 16 16 1 0
BITMAP
F00B
E815
D817
B42B
EC2F
DA57
D66F
DDAF
DAD7
D6EF
DD77
DAD7
D817
D817
D817
D817
ENDCHAR
STARTCHAR N
ENCODING 78
SWIDTH 877 0
DWIDTH 18 0
BBX 16 16 1 0
BITMAP
BC1D
EA1D
D61D
ED1D
DA9D
D59D
DB5D
D6DD
DDAD
DB5D
DAB5
D96D
D8D5
D8AD
D86B
D877
ENDCHAR
STARTCHAR O
ENCODING 79
SWIDTH 933 0
DWIDTH 19 0
BBX 17 18 1 -1
BITMAP
07E000
09D800
363400
5BEA00
6DD500
B62A80
D81680
E80D80
E80D80
E80D80
E80D80
D41680
AE6B00
559500
2BEA00
17F400
0C1800
03E000
ENDCHAR
STARTCHAR P
ENCODING 80
SWIDTH 850 0
DWIDTH 17 0
BBX 15 16 1 0
BITMAP
FFF0
FFEC
CF9C
D07A
DFF6
D82E
D82E
DFD6
DFEA
D834
DFC8
DFF0
D800
D800
D800
D800
ENDCHAR
STARTCHAR Q
ENCODING 81
SWIDTH 937 0
DWIDTH 19 0
BBX 17 19 1 -2
BITMAP
07E000
09D800
363400
5BEA00
6DD500
B62A80
D81680
E80D80
E80D80
E82D80
E85D80
D4B680
AE6B00
559500
2BEA00
17F400
0C1A00
03ED00
000E00
ENDCHAR
STARTCHAR R
ENCODING 82
SWIDTH 843 0
DWIDTH 17 0
BBX 15 16 1 0
BITMAP
FFF0
FFEC
CF9C
D07A
DFF6
D82E
DFF6
D816
DFEA
DFF4
D818
DFE8
D8D8
D8B4
D874
D86C
ENDCHAR
STARTCHAR S
ENCODING 83
SWIDTH 682 0
DWIDTH 14 0
BBX 13 18 0 -1
BITMAP
0FC0
1330
2CE8
57D0
6BE0
B400
B780
6860
57D0
2FA8
1C68
03D8
08D8
1768
2FA8
DFD0
3060
0F80
ENDCHAR
STARTCHAR T
ENCODING 84
SWIDTH 591 0
DWIDTH 12 0
BBX 10 16 1 0
BITMAP
FFC0
FFC0
D1C0
2E00
2E00
2E00
2E00
2E00
2E00
2E00
2E00
2E00
2E00
2E00
2E00
2E00
ENDCHAR
STARTCHAR U
ENCODING 85
SWIDTH 905 0
DWIDTH 18 0
BBX 16 17 1 -1
BITMAP
E817
E817
E817
E817
E817
E817
E817
E817
E817
D817
D81B
B66D
6DB6
5BDA
37E4
0C38
03C0
ENDCHAR
STARTCHAR V
ENCODING 86
SWIDTH 940 0
DWIDTH 19 0
BBX 18 16 0 0
BITMAP
FC06C0
6C0B40
5A0D40
360D80
2D1680
2B1B00
1B2D00
16B500
0DB600
0B5A00
0B6C00
06B400
05B400
02D800
036800
01B000
ENDCHAR
STARTCHAR W
ENCODING 87
SWIDTH 1161 0
DWIDTH 23 0
BBX 23 16 0 0
BITMAP
B46C5A
6CB65C
6CBA6C
5ADE6C
5AEDB4
376DB8
356BD8
2DBB68
1DD768
1AD5B0
176DB0
176AD0
0DAAD0
0DA760
0EC760
06C5A0
ENDCHAR
STARTCHAR X
ENCODING 88
SWIDTH 876 0
DWIDTH 18 0
BBX 17 16 0 0
BITMAP
EE3B80
563500
2D5600
1B6A00
16B400
0D5800
0BA800
06D000
056800
06B800
0B5400
0D6A00
16DA00
2B3500
352B00
7A1780
ENDCHAR
STARTCHAR Y
ENCODING 89
SWIDTH 789 0
DWIDTH 16 0
BBX 15 16 0 0
BITMAP
F43E
6C3A
5A6C
3674
2DB8
1AE8
1770
0DB0
0AE0
0760
05A0
05A0
05A0
05A0
05A0
05A0
ENDCHAR
STARTCHAR Z
ENCODING 90
SWIDTH 854 0
DWIDTH 17 0
BBX 15 16 1 0
BITMAP
FFFE
FFF6
FFDA
002E
FED4
016A
06B4
0B58
35A0
5AC0
AD00
D6FE
EBFE
B400
5FFE
FFFE
ENDCHAR
STARTCHAR bracketleft
ENCODING 91
SWIDTH 320 0
DWIDTH 6 0
BBX 5 18 1 -1
BITMAP
F8
B8
C0
D8
D0
D0
D0
D0
D0
D0
D0
D0
D0
D0
D0
D8
F8
F8
ENDCHAR
STARTCHAR backslash
ENCODING 92
SWIDTH 448 0
DWIDTH 9 0
BBX 9 18 0 -2
BITMAP
B000
6800
6800
5800
5800
3400
3400
2C00
2C00
1A00
1A00
1600
1600
0D00
0D00
0B00
0B00
0680
ENDCHAR
STARTCHAR bracketright
ENCODING 93
SWIDTH 319 0
DWIDTH 6 0
BBX 5 18 1 -1
BITMAP
F8
C8
28
E8
68
68
68
68
68
68
68
68
68
68
68
E8
E8
F8
ENDCHAR
STARTCHAR asciicircum
ENCODING 94
SWIDTH 475 0
DWIDTH 10 0
BBX 8 8 1 6
BITMAP
38
34
4C
5C
6A
A6
C5
C5
ENDCHAR
STARTCHAR underscore
ENCODING 95
SWIDTH 511 0
DWIDTH 10 0
BBX 8 4 1 -4
BITMAP
FF
FF
00
FF
ENDCHAR
STARTCHAR grave
ENCODING 96
SWIDTH 472 0
DWIDTH 9 0
BBX 8 5 1 14
BITMAP
40
B0
6C
1B
06
ENDCHAR
STARTCHAR a
ENCODING 97
SWIDTH 832 0
DWIDTH 17 0
BBX 15 14 1 0
BITMAP
1FE0
2FD0
57A8
A854
D7AA
E85A
E836
E836
E836
D6B6
A976
57B6
2FB6
1FF6
ENDCHAR
STARTCHAR b
ENCODING 98
SWIDTH 720 0
DWIDTH 14 0
BBX 13 14 1 0
BITMAP
FFE0
FFD0
C030
DFE8
D068
DFA8
DFD0
D070
DFE8
D068
DFE8
D070
DFB0
DFC0
ENDCHAR
STARTCHAR c
ENCODING 99
SWIDTH 736 0
DWIDTH 15 0
BBX 13 16 1 -1
BITMAP
07C0
1830
2FE8
57D8
AB20
D4C0
E800
E800
E800
E800
D4C0
AB70
57B8
2FC8
1830
07C0
ENDCHAR
STARTCHAR d
ENCODING 100
SWIDTH 833 0
DWIDTH 17 0
BBX 15 14 1 0
BITMAP
FFE0
FFD0
C028
DFD4
DFAA
D85A
D836
D836
D85A
DFAA
DFD4
C028
FFD0
FFE0
ENDCHAR
STARTCHAR e
ENCODING 101
SWIDTH 666 0
DWIDTH 13 0
BBX 12 14 1 0
BITMAP
DFF0
DFF0
D800
DFF0
D800
DFE0
DFE0
D800
DFE0
D800
DFF0
D800
DFF0
DFF0
ENDCHAR
STARTCHAR f
ENCODING 102
SWIDTH 625 0
DWIDTH 13 0
BBX 11 14 1 0
BITMAP
DFE0
DFE0
D800
DFE0
D800
DFC0
D800
DFC0
DFC0
D800
D800
D800
D800
D800
ENDCHAR
STARTCHAR g
ENCODING 103
SWIDTH 827 0
DWIDTH 17 0
BBX 15 16 1 -1
BITMAP
07C0
1830
2FE8
57D8
AB20
D4C0
E800
E800
E83A
E83A
D4FA
AB3A
57FA
2FFA
183A
07C0
ENDCHAR
STARTCHAR h
ENCODING 104
SWIDTH 830 0
DWIDTH 17 0
BBX 15 14 1 0
BITMAP
D83A
D83A
D83A
D83A
D83A
DFDA
DFDA
D83A
DFFA
D83A
D83A
D83A
D83A
D83A
ENDCHAR
STARTCHAR i
ENCODING 105
SWIDTH 337 0
DWIDTH 7 0
BBX 5 14 1 0
BITMAP
D8
D8
D8
D8
D8
D8
D8
D8
D8
D8
D8
D8
D8
D8
ENDCHAR
STARTCHAR j
ENCODING 106
SWIDTH 393 0
DWIDTH 8 0
BBX 7 16 0 -2
BITMAP
36
36
36
36
36
36
36
36
36
36
36
DA
EC
34
D8
E0
ENDCHAR
STARTCHAR k
ENCODING 107
SWIDTH 801 0
DWIDTH 16 0
BBX 15 14 1 0
BITMAP
D87E
D8B4
D8D8
D968
D9B0
DAD0
DD60
DDE0
DAD0
D9B0
D968
D8D8
D8B4
D86E
ENDCHAR
STARTCHAR l
ENCODING 108
SWIDTH 583 0
DWIDTH 12 0
BBX 10 14 1 0
BITMAP
D800
D800
D800
D800
D800
D800
D800
D800
D800
D800
DFC0
D800
DFC0
DFC0
ENDCHAR
STARTCHAR m
ENCODING 109
SWIDTH 1167 0
DWIDTH 23 0
BBX 22 15 1 0
BITMAP
0F8F80
307060
5FDFD0
AFAFA8
D76B58
D8DCB4
E8D8B4
E8D8B4
E8D8B4
E8D8B4
E8D8B4
E8D8B4
E8D8B4
E8D8B4
E8D8B4
ENDCHAR
STARTCHAR n
ENCODING 110
SWIDTH 787 0
DWIDTH 16 0
BBX 14 14 1 0
BITMAP
B42C
EA2C
D62C
ED2C
EB2C
D6AC
ED6C
DB6C
D6AC
D56C
D2D4
D1B4
D16C
D0F4
ENDCHAR
STARTCHAR o
ENCODING 111
SWIDTH 833 0
DWIDTH 17 0
BBX 15 16 1 -1
BITMAP
07C0
1830
2FE8
57D4
AB2C
D4DA
E836
E836
E836
E836
D4DA
AB6C
5794
2FE8
1830
07C0
ENDCHAR
STARTCHAR p
ENCODING 112
SWIDTH 781 0
DWIDTH 16 0
BBX 14 14 1 0
BITMAP
FFE0
FFD0
C028
DFD4
DFAC
D86C
DFAC
DFD4
D868
DF90
DFE0
D800
D800
D800
ENDCHAR
STARTCHAR q
ENCODING 113
SWIDTH 788 0
DWIDTH 16 0
BBX 14 16 1 -2
BITMAP
1FFC
2FF4
500C
AFEC
D7EC
E86C
E86C
E86C
D7EC
AFEC
5FEC
306C
0FEC
006C
006C
006C
ENDCHAR
STARTCHAR r
ENCODING 114
SWIDTH 831 0
DWIDTH 17 0
BBX 15 14 1 0
BITMAP
FFF0
FFE8
C014
DFEA
DFD6
D836
DFD6
DFEA
D834
DFC8
DFF0
D968
D8D8
D8B4
ENDCHAR
STARTCHAR s
ENCODING 115
SWIDTH 683 0
DWIDTH 14 0
BBX 13 14 0 0
BITMAP
1FF0
2FC8
57B0
A860
B000
6FC0
5F30
30E8
0FE8
0058
1858
27A8
DFD0
3FE0
ENDCHAR
STARTCHAR t
ENCODING 116
SWIDTH 588 0
DWIDTH 12 0
BBX 10 14 1 0
BITMAP
FFC0
FFC0
0000
FFC0
2E00
2E00
2E00
2E00
2E00
2E00
2E00
2E00
2E00
2E00
ENDCHAR
STARTCHAR u
ENCODING 117
SWIDTH 795 0
DWIDTH 16 0
BBX 14 15 1 -1
BITMAP
E86C
E86C
E86C
E86C
E86C
E86C
E86C
E86C
D86C
D4B4
AB54
57A8
2FD0
1860
0780
ENDCHAR
STARTCHAR v
ENCODING 118
SWIDTH 855 0
DWIDTH 17 0
BBX 17 14 0 0
BITMAP
B41680
6C1B00
5A2D00
363600
2D3600
2D5A00
1B6C00
16B400
0DD400
0AD800
0B6800
05B000
06D000
03F000
ENDCHAR
STARTCHAR w
ENCODING 119
SWIDTH 1129 0
DWIDTH 23 0
BBX 21 14 1 0
BITMAP
E8E8E8
E8E8E8
E8E8E8
E8E8E8
E8E8E8
E8E8E8
E8E8E8
E8E8E8
E8E8E8
DF6F68
B8A8A8
775750
6FAFA0
1FDFC0
ENDCHAR
STARTCHAR x
ENCODING 120
SWIDTH 790 0
DWIDTH 16 0
BBX 15 14 0 0
BITMAP
EA5E
55AC
2DD4
1B68
16A8
0B50
0560
0AA0
0B50
15A8
1AD8
2DD4
56AA
EA5E
ENDCHAR
STARTCHAR y
ENCODING 121
SWIDTH 733 0
DWIDTH 15 0
BBX 14 14 0 0
BITMAP
B47C
6C74
5AD8
36E8
2D70
1BD0
16E0
0B60
05C0
06C0
06C0
06C0
06C0
06C0
ENDCHAR
STARTCHAR z
ENCODING 122
SWIDTH 714 0
DWIDTH 14 0
BBX 13 14 1 0
BITMAP
FF58
FEA8
02D0
FD60
06A0
0B40
1580
1A80
2B00
5500
5BF8
AC00
D7F8
EFF8
ENDCHAR
STARTCHAR braceleft
ENCODING 123
SWIDTH 396 0
DWIDTH 8 0
BBX 6 21 1 -4
BITMAP
1C
2C
50
6C
70
70
70
70
70
D0
30
D0
B0
70
70
70
70
68
54
2C
1C
ENDCHAR
STARTCHAR bar
ENCODING 124
SWIDTH 266 0
DWIDTH 5 0
BBX 3 18 1 -2
BITMAP
E0
E0
E0
E0
E0
E0
E0
E0
E0
E0
E0
E0
E0
E0
E0
E0
E0
E0
ENDCHAR
STARTCHAR braceright
ENCODING 125
SWIDTH 396 0
DWIDTH 8 0
BBX 6 21 1 -4
BITMAP
E0
D0
28
D8
58
38
38
38
34
38
34
2C
38
38
38
38
38
58
A8
D0
E0
ENDCHAR
STARTCHAR asciitilde
ENCODING 126
SWIDTH 665 0
DWIDTH 13 0
BBX 12 4 1 11
BITMAP
7F50
9FD0
E020
DFC0
ENDCHAR
STARTCHAR uni00A0
ENCODING 160
SWIDTH 108 0
DWIDTH 2 0
BBX 1 1 0 0
BITMAP
00
ENDCHAR
STARTCHAR exclamdown
ENCODING 161
SWIDTH 336 0
DWIDTH 7 0
BBX 5 17 1 -1
BITMAP
D8
D8
D8
D8
D8
D8
D8
D8
D8
D8
D8
D8
00
F8
F8
00
F8
ENDCHAR
STARTCHAR cent
ENCODING 162
SWIDTH 708 0
DWIDTH 14 0
BBX 13 20 1 -2
BITMAP
0500
0500
0300
1CE0
2FD0
5728
A8D0
D7A0
E880
E800
E800
D880
B760
6FB0
58D8
3720
0FC0
0500
0500
0500
ENDCHAR
STARTCHAR sterling
ENCODING 163
SWIDTH 689 0
DWIDTH 14 0
BBX 12 17 1 0
BITMAP
1F80
2760
58D0
AFE0
D780
E800
E800
EFC0
E800
EFC0
EFC0
E800
E800
EFC0
E800
EFC0
EFC0
ENDCHAR
STARTCHAR currency
ENCODING 164
SWIDTH 715 0
DWIDTH 14 0
BBX 14 15 0 0
BITMAP
1030
E83C
5FD8
2868
17D0
2830
3030
3028
3030
2830
2C50
33B0
5FE8
A854
3038
ENDCHAR
STARTCHAR yen
ENCODING 165
SWIDTH 796 0
DWIDTH 16 0
BBX 16 16 0 0
BITMAP
F42F
6C3A
3A5C
366C
2DB8
1AD8
1770
0DB0
0AD0
0760
05A0
3DBC
3DBC
05A0
05A0
05A0
ENDCHAR
STARTCHAR brokenbar
ENCODING 166
SWIDTH 263 0
DWIDTH 5 0
BBX 3 18 1 -2
BITMAP
E0
E0
E0
E0
E0
E0
E0
E0
00
00
E0
E0
E0
E0
E0
E0
E0
E0
ENDCHAR
STARTCHAR section
ENCODING 167
SWIDTH 108 0
DWIDTH 2 0
BBX 1 1 0 0
BITMAP
00
ENDCHAR
STARTCHAR dieresis
ENCODING 168
SWIDTH 556 0
DWIDTH 11 0
BBX 9 2 1 15
BITMAP
E380
E380
ENDCHAR
STARTCHAR copyright
ENCODING 169
SWIDTH 869 0
DWIDTH 17 0
BBX 16 16 1 1
BITMAP
07C0
1830
3008
47C4
4C32
9812
9003
B001
B001
9001
9002
C812
47E6
218C
1018
0FE0
ENDCHAR
STARTCHAR ordfeminine
ENCODING 170
SWIDTH 833 0
DWIDTH 17 0
BBX 15 14 1 0
BITMAP
1FE0
2FD8
53B4
AC6C
D7EA
D85A
E836
E836
D836
D6F6
A976
57B6
2FB6
1FF6
ENDCHAR
STARTCHAR guillemotleft
ENCODING 171
SWIDTH 911 0
DWIDTH 18 0
BBX 16 10 1 2
BITMAP
0703
190D
6E76
B7BB
D84C
6673
FD7F
3319
0E06
0101
ENDCHAR
STARTCHAR logicalnot
ENCODING 172
SWIDTH 718 0
DWIDTH 14 0
BBX 13 7 1 4
BITMAP
FFE8
0068
FFE8
FFE8
0068
0068
0068
ENDCHAR
STARTCHAR registered
ENCODING 174
SWIDTH 869 0
DWIDTH 17 0
BBX 16 16 1 1
BITMAP
07C0
1830
3008
4004
4FE2
8C22
8C33
8C21
8FC1
8CC1
8C42
CC62
4C26
200C
1018
0FE0
ENDCHAR
STARTCHAR degree
ENCODING 176
SWIDTH 330 0
DWIDTH 7 0
BBX 5 6 1 15
BITMAP
70
E8
98
D8
B8
60
ENDCHAR
STARTCHAR plusminus
ENCODING 177
SWIDTH 598 0
DWIDTH 12 0
BBX 10 12 1 1
BITMAP
2D00
2D00
2D00
EDC0
EDC0
2D00
EDC0
2D00
2D00
0000
FFC0
FFC0
ENDCHAR
STARTCHAR uni00B2
ENCODING 178
SWIDTH 435 0
DWIDTH 9 0
BBX 7 13 1 3
BITMAP
FC
FA
06
06
0C
14
28
30
60
A0
FE
00
FE
ENDCHAR
STARTCHAR uni00B3
ENCODING 179
SWIDTH 515 0
DWIDTH 10 0
BBX 10 13 0 3
BITMAP
FE00
7D00
0280
7D80
0580
1E80
1D80
0380
1F40
0340
7D40
7E80
7F00
ENDCHAR
STARTCHAR acute
ENCODING 180
SWIDTH 472 0
DWIDTH 9 0
BBX 8 5 1 14
BITMAP
06
1B
6C
B0
40
ENDCHAR
STARTCHAR uni00B5
ENCODING 181
SWIDTH 802 0
DWIDTH 16 0
BBX 14 16 1 -2
BITMAP
D85C
D85C
D85C
D85C
D85C
D85C
D85C
D85C
D86C
DCAC
DB54
DFA8
DFD0
D860
DF80
D800
ENDCHAR
STARTCHAR paragraph
ENCODING 182
SWIDTH 676 0
DWIDTH 14 0
BBX 12 16 1 -2
BITMAP
1FF0
6FD0
B050
DFD0
DED0
E9D0
DED0
BED0
51D0
6FD0
1ED0
01D0
01D0
01D0
01D0
01F0
ENDCHAR
STARTCHAR periodcentered
ENCODING 183
SWIDTH 260 0
DWIDTH 5 0
BBX 3 3 1 8
BITMAP
E0
E0
E0
ENDCHAR
STARTCHAR cedilla
ENCODING 184
SWIDTH 321 0
DWIDTH 6 0
BBX 4 7 1 -8
BITMAP
30
D0
B0
C0
B0
C0
30
ENDCHAR
STARTCHAR uni00B9
ENCODING 185
SWIDTH 359 0
DWIDTH 7 0
BBX 5 11 1 5
BITMAP
F8
F8
38
38
38
38
38
38
38
38
38
ENDCHAR
STARTCHAR ordmasculine
ENCODING 186
SWIDTH 835 0
DWIDTH 17 0
BBX 15 16 1 -1
BITMAP
07C0
1830
2FE8
57D4
AB2C
D4DA
D836
E836
E836
D836
D4DA
AB2C
57D4
2FE8
1830
07C0
ENDCHAR
STARTCHAR guillemotright
ENCODING 187
SWIDTH 912 0
DWIDTH 18 0
BBX 16 10 1 2
BITMAP
C060
B85C
6633
DD6F
3B19
6677
BB9F
DC6C
6070
8080
ENDCHAR
STARTCHAR onequarter
ENCODING 188
SWIDTH 1236 0
DWIDTH 25 0
BBX 24 18 0 -2
BITMAP
FC1A00
FC1A00
1C2C00
1C2C3C
1C3454
1C3458
1C58A8
1C58B0
1C68D6
1C6966
1CB1FF
00B000
00D1FF
00D1FF
016006
016006
01A000
01A000
ENDCHAR
STARTCHAR onehalf
ENCODING 189
SWIDTH 1154 0
DWIDTH 23 0
BBX 23 18 0 -2
BITMAP
FC1A00
FC1A00
1C2C00
1C2CF8
1C3504
1C34FA
1C580A
1C580C
1C6818
1C6828
1CB050
00B060
00D0C0
00D100
0161FC
0161FC
01A000
01A000
ENDCHAR
STARTCHAR threequarters
ENCODING 190
SWIDTH 1345 0
DWIDTH 27 0
BBX 26 18 0 -2
BITMAP
FE034000
7D058000
02858000
7D868B00
05868D00
1E8B1600
1D8B1A00
038D2C00
1F4D3540
03565940
7D567FC0
7E9A0000
631A7FC0
1C2C7FC0
002C0140
00340140
00340000
00580000
ENDCHAR
STARTCHAR questiondown
ENCODING 191
SWIDTH 693 0
DWIDTH 14 0
BBX 13 17 0 0
BITMAP
1F80
6760
B8D0
7FA8
0F58
00B8
00B8
3758
37A8
37D0
3460
3780
3400
3C00
0000
3C00
3C00
ENDCHAR
STARTCHAR Agrave
ENCODING 192
SWIDTH 936 0
DWIDTH 19 0
BBX 18 23 0 0
BITMAP
0C0000
130000
0EC000
01A000
004000
000000
000000
03B000
036800
02D800
05B400
07B400
0B6C00
0D5A00
0DB600
16AD00
1B2D00
2DFB00
351680
37ED80
5BFB40
6C0B40
B406C0
ENDCHAR
STARTCHAR Aacute
ENCODING 193
SWIDTH 936 0
DWIDTH 19 0
BBX 18 23 0 0
BITMAP
000600
001B00
006C00
00B000
004000
000000
000000
03B000
036800
02D800
05B400
07B400
0B6C00
0D5A00
0DB600
16AD00
1B2D00
2DFB00
351680
37ED80
5BFB40
6C0B40
B406C0
ENDCHAR
STARTCHAR Acircumflex
ENCODING 194
SWIDTH 936 0
DWIDTH 19 0
BBX 18 23 0 0
BITMAP
00A000
00E000
015000
01D000
02B000
000000
000000
03B000
036800
02D800
05B400
07B400
0B6C00
0D5A00
0DB600
16AD00
1B2D00
2DFB00
351680
37ED80
5BFB40
6C0B40
B406C0
ENDCHAR
STARTCHAR Atilde
ENCODING 195
SWIDTH 936 0
DWIDTH 19 0
BBX 18 22 0 0
BITMAP
07F600
09FE00
160200
15FC00
000000
000000
03B000
036800
02D800
05B400
07B400
0B6C00
0D5A00
0DB600
16AD00
1B2D00
2DFB00
351680
37ED80
5BFB40
6C0B40
B406C0
ENDCHAR
STARTCHAR Adieresis
ENCODING 196
SWIDTH 936 0
DWIDTH 19 0
BBX 18 20 0 0
BITMAP
0B2C00
0B2C00
000000
000000
03B000
036800
02D800
05B400
07B400
0B6C00
0D5A00
0DB600
16AD00
1B2D00
2DFB00
351680
37ED80
5BFB40
6C0B40
B406C0
ENDCHAR
STARTCHAR Aring
ENCODING 197
SWIDTH 936 0
DWIDTH 19 0
BBX 18 22 0 0
BITMAP
00E000
015000
01B000
01B000
017000
00C000
03B000
036800
02D800
05B400
07B400
0B6C00
0D5A00
0DB600
16AD00
1B2D00
2DFB00
351680
37ED80
5BFB40
6C0B40
B406C0
ENDCHAR
STARTCHAR AE
ENCODING 198
SWIDTH 1198 0
DWIDTH 24 0
BBX 23 16 0 0
BITMAP
03BFFE
036FFE
02DBFE
05B400
07B400
0B6C00
0D5BFC
0DB6FC
16AD00
1B2DFC
2DFB00
351680
37EDFE
5BFB80
6C0B7E
B406FE
ENDCHAR
STARTCHAR Ccedilla
ENCODING 199
SWIDTH 852 0
DWIDTH 17 0
BBX 16 24 1 -7
BITMAP
07E0
09D8
3634
5BEB
6DD4
B628
D810
E800
E800
E800
E800
D410
AE68
5595
2BEA
17F4
0C18
03E0
0640
0580
0600
0780
0600
0180
ENDCHAR
STARTCHAR Egrave
ENCODING 200
SWIDTH 706 0
DWIDTH 14 0
BBX 12 23 1 0
BITMAP
4000
B000
6C00
1B00
0600
0000
0000
DFF0
DFF0
DFF0
D800
D800
D800
DF80
DF80
D800
DF80
D800
D800
DFF0
D800
DFF0
DFF0
ENDCHAR
STARTCHAR Eacute
ENCODING 201
SWIDTH 706 0
DWIDTH 14 0
BBX 13 23 1 0
BITMAP
0020
00D8
0360
0D80
0200
0000
0000
DFF0
DFF0
DFF0
D800
D800
D800
DF80
DF80
D800
DF80
D800
D800
DFF0
D800
DFF0
DFF0
ENDCHAR
STARTCHAR Ecircumflex
ENCODING 202
SWIDTH 706 0
DWIDTH 14 0
BBX 12 23 1 0
BITMAP
0700
0D00
0B00
0E80
1580
0000
0000
DFF0
DFF0
DFF0
D800
D800
D800
DF80
DF80
D800
DF80
D800
D800
DFF0
D800
DFF0
DFF0
ENDCHAR
STARTCHAR Edieresis
ENCODING 203
SWIDTH 706 0
DWIDTH 14 0
BBX 12 20 1 0
BITMAP
5960
5960
0000
0000
DFF0
DFF0
DFF0
D800
D800
D800
DF80
DF80
D800
DF80
D800
D800
DFF0
D800
DFF0
DFF0
ENDCHAR
STARTCHAR Igrave
ENCODING 204
SWIDTH 338 0
DWIDTH 7 0
BBX 9 23 -3 0
BITMAP
6000
9800
7600
0D00
0200
0000
0000
0D80
0D80
0D80
0D80
0D80
0D80
0D80
0D80
0D80
0D80
0D80
0D80
0D80
0D80
0D80
0D80
ENDCHAR
STARTCHAR Iacute
ENCODING 205
SWIDTH 338 0
DWIDTH 7 0
BBX 9 23 1 0
BITMAP
0300
0D80
3600
5800
2000
0000
0000
D800
D800
D800
D800
D800
D800
D800
D800
D800
D800
D800
D800
D800
D800
D800
D800
ENDCHAR
STARTCHAR Icircumflex
ENCODING 206
SWIDTH 338 0
DWIDTH 7 0
BBX 6 23 0 0
BITMAP
28
38
54
74
AC
00
00
6C
6C
6C
6C
6C
6C
6C
6C
6C
6C
6C
6C
6C
6C
6C
6C
ENDCHAR
STARTCHAR Idieresis
ENCODING 207
SWIDTH 338 0
DWIDTH 7 0
BBX 9 20 -1 0
BITMAP
E580
E580
0000
0000
3600
3600
3600
3600
3600
3600
3600
3600
3600
3600
3600
3600
3600
3600
3600
3600
ENDCHAR
STARTCHAR Eth
ENCODING 208
SWIDTH 905 0
DWIDTH 18 0
BBX 16 16 1 0
BITMAP
FFF0
BFEC
AF9A
B076
BFED
B81B
FE17
FE17
0017
FE1B
B82B
BFD5
BFEA
A014
BFE8
FFF0
ENDCHAR
STARTCHAR Ntilde
ENCODING 209
SWIDTH 877 0
DWIDTH 18 0
BBX 16 22 1 0
BITMAP
1FD4
27F4
3808
37F0
0000
0000
BC1D
EA1D
D61D
ED1D
DA9D
D59D
DB5D
D6DD
DDAD
DB5D
DAB5
D96D
D8D5
D8AD
D86B
D877
ENDCHAR
STARTCHAR Ograve
ENCODING 210
SWIDTH 933 0
DWIDTH 19 0
BBX 17 24 1 -1
BITMAP
180000
260000
198000
074000
008000
000000
07E000
09D800
363400
5BEA00
6DD500
B62A80
D81680
E80D80
E80D80
E80D80
E80D80
D41680
AE6B00
559500
2BEA00
17F400
0C1800
03E000
ENDCHAR
STARTCHAR Oacute
ENCODING 211
SWIDTH 933 0
DWIDTH 19 0
BBX 17 24 1 -1
BITMAP
000C00
003600
00D800
016000
008000
000000
07E000
09D800
363400
5BEA00
6DD500
B62A80
D81680
E80D80
E80D80
E80D80
E80D80
D41680
AE6B00
559500
2BEA00
17F400
0C1800
03E000
ENDCHAR
STARTCHAR Ocircumflex
ENCODING 212
SWIDTH 933 0
DWIDTH 19 0
BBX 17 24 1 -1
BITMAP
014000
014000
02A000
03A000
056000
000000
07E000
09D800
363400
5BEA00
6DD500
B62A80
D81680
E80D80
E80D80
E80D80
E80D80
D41680
AE6B00
559500
2BEA00
17F400
0C1800
03E000
ENDCHAR
STARTCHAR Otilde
ENCODING 213
SWIDTH 933 0
DWIDTH 19 0
BBX 17 23 1 -1
BITMAP
0FEC00
13FC00
2C0400
2BF800
000000
07E000
09D800
363400
5BEA00
6DD500
B62A80
D81680
E80D80
E80D80
E80D80
E80D80
D41680
AE6B00
559500
2BEA00
17F400
0C1800
03E000
ENDCHAR
STARTCHAR Odieresis
ENCODING 214
SWIDTH 933 0
DWIDTH 19 0
BBX 17 21 1 -1
BITMAP
165800
165800
000000
07E000
09D800
363400
5BEA00
6DD500
B62A80
D81680
E80D80
E80D80
E80D80
E80D80
D41680
AE6B00
559500
2BEA00
17F400
0C1800
03E000
ENDCHAR
STARTCHAR multiply
ENCODING 215
SWIDTH 790 0
DWIDTH 16 0
BBX 15 14 0 0
BITMAP
EA5E
55AC
2DD4
1B68
16A8
0B50
0560
0AA0
0B50
15A8
1AD8
2DD4
56AA
EA5E
ENDCHAR
STARTCHAR Oslash
ENCODING 216
SWIDTH 938 0
DWIDTH 19 0
BBX 17 22 1 -3
BITMAP
000800
001600
07EA00
09DC00
363400
5BEA00
6DD500
B62A80
D81680
E80D80
E80D80
E80D80
E80D80
D81680
B66B00
6D9500
5BEA00
37F400
2C1800
37E000
580000
180000
ENDCHAR
STARTCHAR Ugrave
ENCODING 217
SWIDTH 905 0
DWIDTH 18 0
BBX 16 24 1 -1
BITMAP
1000
6C00
1B00
06C0
0180
0000
0000
E817
E817
E817
E817
E817
E817
E817
E817
E817
D817
D81B
B66D
6DB6
5BDA
37E4
0C38
03C0
ENDCHAR
STARTCHAR Uacute
ENCODING 218
SWIDTH 905 0
DWIDTH 18 0
BBX 16 24 1 -1
BITMAP
0008
0036
00D8
0360
0080
0000
0000
E817
E817
E817
E817
E817
E817
E817
E817
E817
D817
D81B
B66D
6DB6
5BDA
37E4
0C38
03C0
ENDCHAR
STARTCHAR Ucircumflex
ENCODING 219
SWIDTH 905 0
DWIDTH 18 0
BBX 16 24 1 -1
BITMAP
0180
0340
02C0
05A0
07E0
0000
0000
E817
E817
E817
E817
E817
E817
E817
E817
E817
D817
D81B
B66D
6DB6
5BDA
37E4
0C38
03C0
ENDCHAR
STARTCHAR Udieresis
ENCODING 220
SWIDTH 905 0
DWIDTH 18 0
BBX 16 21 1 -1
BITMAP
1658
1658
0000
0000
E817
E817
E817
E817
E817
E817
E817
E817
E817
D817
D81B
B66D
6DB6
5BDA
37E4
0C38
03C0
ENDCHAR
STARTCHAR Yacute
ENCODING 221
SWIDTH 789 0
DWIDTH 16 0
BBX 15 23 0 0
BITMAP
0008
0034
00D8
0360
0180
0000
0008
F436
6C3A
5A6C
3674
2DB8
1AE8
1770
0DB0
0AE0
0760
05A0
05A0
05A0
05A0
05A0
05A0
ENDCHAR
STARTCHAR Thorn
ENCODING 222
SWIDTH 798 0
DWIDTH 16 0
BBX 14 18 1 -1
BITMAP
D800
D800
DFC0
DFB0
D868
DFD4
DFB4
D86C
D85C
D85C
D8EC
DF74
DF98
D8E8
DF30
DFC0
D800
D800
ENDCHAR
STARTCHAR germandbls
ENCODING 223
SWIDTH 826 0
DWIDTH 17 0
BBX 15 18 1 -1
BITMAP
1FE0
27D0
5828
AFD4
D7AA
D85A
DFDA
D82C
DFFC
DFDA
D836
D836
DFDA
DFEC
D834
DFC8
DFF0
D800
ENDCHAR
STARTCHAR agrave
ENCODING 224
SWIDTH 832 0
DWIDTH 17 0
BBX 15 21 1 0
BITMAP
2000
5800
3600
0D80
0300
0000
0300
1CE0
2FD0
57A8
A854
D7AA
E85A
E836
E836
E836
D6B6
A976
57B6
2FB6
1FF6
ENDCHAR
STARTCHAR aacute
ENCODING 225
SWIDTH 832 0
DWIDTH 17 0
BBX 15 21 1 0
BITMAP
0010
006C
01B0
06C0
0100
0000
0300
1CE0
2FD0
57A8
A854
D7AA
E85A
E836
E836
E836
D6B6
A976
57B6
2FB6
1FF6
ENDCHAR
STARTCHAR acircumflex
ENCODING 226
SWIDTH 832 0
DWIDTH 17 0
BBX 15 21 1 0
BITMAP
0300
0680
0580
0B40
0AC0
0000
0300
1CE0
2FD0
57A8
A854
D7AA
E85A
E836
E836
E836
D6B6
A976
57B6
2FB6
1FF6
ENDCHAR
STARTCHAR atilde
ENCODING 227
SWIDTH 832 0
DWIDTH 17 0
BBX 15 20 1 0
BITMAP
1FD8
67E8
5808
67F0
0000
0300
1CE0
2FD0
57A8
A854
D7AA
E85A
E836
E836
E836
D6B6
A976
57B6
2FB6
1FF6
ENDCHAR
STARTCHAR adieresis
ENCODING 228
SWIDTH 832 0
DWIDTH 17 0
BBX 15 18 1 0
BITMAP
2CB0
2CB0
0000
0300
1CE0
2FD0
57A8
A854
D7AA
E85A
E836
E836
E836
D6B6
A976
57B6
2FB6
1FF6
ENDCHAR
STARTCHAR aring
ENCODING 229
SWIDTH 832 0
DWIDTH 17 0
BBX 15 21 1 0
BITMAP
0380
0740
0CC0
0AC0
0580
0300
0300
1CE0
2FD0
57A8
A854
D7AA
E85A
E836
E836
E836
D6B6
A976
57B6
2FB6
1FF6
ENDCHAR
STARTCHAR ae
ENCODING 230
SWIDTH 1166 0
DWIDTH 23 0
BBX 22 14 1 0
BITMAP
1FF7FC
2FD7FC
57AA00
A857FC
D7AA00
E85BF8
E837F8
E83600
E837F8
D6B600
A977FC
57B600
2FB7FC
1FF7FC
ENDCHAR
STARTCHAR ccedilla
ENCODING 231
SWIDTH 736 0
DWIDTH 15 0
BBX 13 22 1 -7
BITMAP
07C0
1830
2FE8
57D8
AB20
D4C0
E800
E800
E800
E800
D4C0
AB70
57B8
2FC8
1830
07C0
0D00
0B00
0C00
0F00
0C00
0300
ENDCHAR
STARTCHAR egrave
ENCODING 232
SWIDTH 666 0
DWIDTH 13 0
BBX 13 21 0 0
BITMAP
6000
D800
3600
0D00
0200
0000
0000
6FF8
6FF8
6C00
6FF8
6C00
6FF0
6FF0
6C00
6FF0
6C00
6FF8
6C00
6FF8
6FF8
ENDCHAR
STARTCHAR eacute
ENCODING 233
SWIDTH 666 0
DWIDTH 13 0
BBX 12 21 1 0
BITMAP
0060
0190
0660
0980
0600
0000
0000
DFF0
DFF0
D800
DFF0
D800
DFE0
DFE0
D800
DFE0
D800
DFF0
D800
DFF0
DFF0
ENDCHAR
STARTCHAR ecircumflex
ENCODING 234
SWIDTH 666 0
DWIDTH 13 0
BBX 12 21 1 0
BITMAP
0E00
0D00
0D00
1700
1A80
0000
0000
DFF0
DFF0
D800
DFF0
D800
DFE0
DFE0
D800
DFE0
D800
DFF0
D800
DFF0
DFF0
ENDCHAR
STARTCHAR edieresis
ENCODING 235
SWIDTH 666 0
DWIDTH 13 0
BBX 12 18 1 0
BITMAP
69A0
69A0
0000
0000
DFF0
DFF0
D800
DFF0
D800
DFE0
DFE0
D800
DFE0
D800
DFF0
D800
DFF0
DFF0
ENDCHAR
STARTCHAR igrave
ENCODING 236
SWIDTH 337 0
DWIDTH 7 0
BBX 9 21 -3 0
BITMAP
6000
9800
7600
0D00
0200
0000
0000
0D80
0D80
0D80
0D80
0D80
0D80
0D80
0D80
0D80
0D80
0D80
0D80
0D80
0D80
ENDCHAR
STARTCHAR iacute
ENCODING 237
SWIDTH 337 0
DWIDTH 7 0
BBX 9 21 1 0
BITMAP
0300
0D80
3600
5800
2000
0000
0000
D800
D800
D800
D800
D800
D800
D800
D800
D800
D800
D800
D800
D800
D800
ENDCHAR
STARTCHAR icircumflex
ENCODING 238
SWIDTH 337 0
DWIDTH 7 0
BBX 6 21 0 0
BITMAP
28
38
54
74
AC
00
00
6C
6C
6C
6C
6C
6C
6C
6C
6C
6C
6C
6C
6C
6C
ENDCHAR
STARTCHAR idieresis
ENCODING 239
SWIDTH 337 0
DWIDTH 7 0
BBX 9 18 -1 0
BITMAP
E580
E580
0000
0000
3600
3600
3600
3600
3600
3600
3600
3600
3600
3600
3600
3600
3600
3600
ENDCHAR
STARTCHAR eth
ENCODING 240
SWIDTH 783 0
DWIDTH 16 0
BBX 15 18 0 -1
BITMAP
0FC0
13B0
6C68
1FD4
07AA
005A
0036
1FB6
2FB6
53B6
6C36
B7B6
B45A
6BAA
57D4
2FE8
1830
07C0
ENDCHAR
STARTCHAR ntilde
ENCODING 241
SWIDTH 787 0
DWIDTH 16 0
BBX 14 20 1 0
BITMAP
3F98
4FE8
7010
6FE0
0000
0000
B42C
EA2C
D62C
ED2C
EB2C
D6AC
ED6C
DB6C
D6AC
D56C
D2D4
D1B4
D16C
D0F4
ENDCHAR
STARTCHAR ograve
ENCODING 242
SWIDTH 833 0
DWIDTH 17 0
BBX 15 22 1 -1
BITMAP
3000
4C00
3300
0C80
0300
0000
07C0
1830
2FE8
57D4
AB2C
D4DA
E836
E836
E836
E836
D4DA
AB6C
5794
2FE8
1830
07C0
ENDCHAR
STARTCHAR oacute
ENCODING 243
SWIDTH 833 0
DWIDTH 17 0
BBX 15 22 1 -1
BITMAP
0018
006C
01B0
02C0
0100
0000
07C0
1830
2FE8
57D4
AB2C
D4DA
E836
E836
E836
E836
D4DA
AB6C
5794
2FE8
1830
07C0
ENDCHAR
STARTCHAR ocircumflex
ENCODING 244
SWIDTH 833 0
DWIDTH 17 0
BBX 15 22 1 -1
BITMAP
0280
0580
0580
0740
0AC0
0000
07C0
1830
2FE8
57D4
AB2C
D4DA
E836
E836
E836
E836
D4DA
AB6C
5794
2FE8
1830
07C0
ENDCHAR
STARTCHAR otilde
ENCODING 245
SWIDTH 833 0
DWIDTH 17 0
BBX 15 21 1 -1
BITMAP
1FD8
27F8
5808
57F0
0000
07C0
1830
2FE8
57D4
AB2C
D4DA
E836
E836
E836
E836
D4DA
AB6C
5794
2FE8
1830
07C0
ENDCHAR
STARTCHAR odieresis
ENCODING 246
SWIDTH 833 0
DWIDTH 17 0
BBX 15 19 1 -1
BITMAP
2CB0
2CB0
0000
07C0
1830
2FE8
57D4
AB2C
D4DA
E836
E836
E836
E836
D4DA
AB6C
5794
2FE8
1830
07C0
ENDCHAR
STARTCHAR divide
ENCODING 247
SWIDTH 260 0
DWIDTH 5 0
BBX 7 11 -1 1
BITMAP
34
34
34
00
FE
00
FE
00
34
34
34
ENDCHAR
STARTCHAR oslash
ENCODING 248
SWIDTH 832 0
DWIDTH 17 0
BBX 15 18 1 -2
BITMAP
0030
07F4
1838
2FE8
57D4
AB2C
D4DA
E836
E836
E836
E836
D4DA
AB6C
57B4
2FC8
5830
6FC0
1000
ENDCHAR
STARTCHAR ugrave
ENCODING 249
SWIDTH 795 0
DWIDTH 16 0
BBX 14 22 1 -1
BITMAP
2000
D800
3600
0D80
0200
0000
0000
E86C
E86C
E86C
E86C
E86C
E86C
E86C
E86C
D86C
D4B4
AB54
57A8
2FD0
1860
0780
ENDCHAR
STARTCHAR uacute
ENCODING 250
SWIDTH 795 0
DWIDTH 16 0
BBX 14 22 1 -1
BITMAP
0010
0068
01B0
06C0
0300
0000
0000
E86C
E86C
E86C
E86C
E86C
E86C
E86C
E86C
D86C
D4B4
AB54
57A8
2FD0
1860
0780
ENDCHAR
STARTCHAR ucircumflex
ENCODING 251
SWIDTH 795 0
DWIDTH 16 0
BBX 14 22 1 -1
BITMAP
0300
0680
0580
0B80
0D40
0000
0000
E86C
E86C
E86C
E86C
E86C
E86C
E86C
E86C
D86C
D4B4
AB54
57A8
2FD0
1860
0780
ENDCHAR
STARTCHAR udieresis
ENCODING 252
SWIDTH 795 0
DWIDTH 16 0
BBX 14 19 1 -1
BITMAP
34D0
34D0
0000
0000
E86C
E86C
E86C
E86C
E86C
E86C
E86C
E86C
D86C
D4B4
AB54
57A8
2FD0
1860
0780
ENDCHAR
STARTCHAR yacute
ENCODING 253
SWIDTH 733 0
DWIDTH 15 0
BBX 14 21 0 0
BITMAP
0018
006C
01B0
02C0
0100
0000
0000
B47C
6C74
5AD8
36E8
2D70
1BD0
16E0
0B60
05C0
06C0
06C0
06C0
06C0
06C0
ENDCHAR
STARTCHAR thorn
ENCODING 254
SWIDTH 833 0
DWIDTH 17 0
BBX 15 18 1 -2
BITMAP
D800
D800
D800
D800
DFF0
DFE8
D814
DFEA
DFD6
D836
DFD6
DFEA
D814
DFE8
DFF0
D800
D800
D800
ENDCHAR
STARTCHAR ydieresis
ENCODING 255
SWIDTH 733 0
DWIDTH 15 0
BBX 14 18 0 0
BITMAP
2CB0
2CB0
0000
0000
B47C
6C74
5AD8
36E8
2D70
1BD0
16E0
0B60
05C0
06C0
06C0
06C0
06C0
06C0
ENDCHAR
STARTCHAR Amacron
ENCODING 256
SWIDTH 936 0
DWIDTH 19 0
BBX 18 16 0 0
BITMAP
03B000
036800
02D800
05B400
07B400
0B6C00
0D5A00
0DB600
16AD00
1B2D00
2DFB00
351680
37ED80
5BFB40
6C0B40
B406C0
ENDCHAR
STARTCHAR amacron
ENCODING 257
SWIDTH 832 0
DWIDTH 17 0
BBX 15 14 1 0
BITMAP
1FE0
2FD0
57A8
A854
D7AA
E85A
E836
E836
E836
D6B6
A976
57B6
2FB6
1FF6
ENDCHAR
STARTCHAR Abreve
ENCODING 258
SWIDTH 936 0
DWIDTH 19 0
BBX 18 20 0 0
BITMAP
03F000
01B000
004000
000000
03B000
036800
02D800
05B400
07B400
0B6C00
0D5A00
0DB600
16AD00
1B2D00
2DFB00
351680
37ED80
5BFB40
6C0B40
B406C0
ENDCHAR
STARTCHAR abreve
ENCODING 259
SWIDTH 832 0
DWIDTH 17 0
BBX 15 18 1 0
BITMAP
0FC0
0480
0300
0300
1CE0
2FD0
57A8
A854
D7AA
E85A
E836
E836
E836
D6B6
A976
57B6
2FB6
1FF6
ENDCHAR
STARTCHAR Aogonek
ENCODING 260
SWIDTH 937 0
DWIDTH 19 0
BBX 19 22 0 -6
BITMAP
01F800
036800
02D800
05B400
06AC00
0AEA00
0B5A00
0DB600
16AD00
1B1B00
1BFB00
2D1680
36ED80
5BFB40
6C06C0
FD87E0
020000
028000
030000
034000
034000
034000
ENDCHAR
STARTCHAR aogonek
ENCODING 261
SWIDTH 832 0
DWIDTH 17 0
BBX 15 21 1 -7
BITMAP
1FE0
2FD0
57A8
A854
D7AA
E85A
E836
E836
E836
D6B6
A976
57B6
2FB6
18F6
0700
0800
0E00
1400
1600
1600
1600
ENDCHAR
STARTCHAR Cacute
ENCODING 262
SWIDTH 852 0
DWIDTH 17 0
BBX 16 24 1 -1
BITMAP
000C
0036
00D8
0160
0080
0000
07E0
09D8
3634
5BEB
6DD4
B628
D810
E800
E800
E800
E800
D410
AE68
5595
2BEA
17F4
0C18
03E0
ENDCHAR
STARTCHAR cacute
ENCODING 263
SWIDTH 736 0
DWIDTH 15 0
BBX 14 22 1 -1
BITMAP
0018
006C
01B0
02C0
0100
0000
07C0
1830
2FE8
57D8
AB20
D4C0
E800
E800
E800
E800
D4C0
AB70
57B8
2FC8
1830
07C0
ENDCHAR
STARTCHAR Cdotaccent
ENCODING 266
SWIDTH 852 0
DWIDTH 17 0
BBX 16 22 1 -1
BITMAP
01C0
01C0
01C0
0000
07E0
09D8
3634
5BEB
6DD4
B628
D810
E800
E800
E800
E800
D410
AE68
5595
2BEA
17F4
0C18
03E0
ENDCHAR
STARTCHAR cdotaccent
ENCODING 267
SWIDTH 736 0
DWIDTH 15 0
BBX 13 20 1 -1
BITMAP
0380
0380
0380
0000
07C0
1830
2FE8
57D8
AB20
D4C0
E800
E800
E800
E800
D4C0
AB70
57B8
2FC8
1830
07C0
ENDCHAR
STARTCHAR Ccaron
ENCODING 268
SWIDTH 852 0
DWIDTH 17 0
BBX 16 24 1 -1
BITMAP
0560
03A0
02A0
02C0
0140
0000
07E0
09D8
3634
5BEB
6DD4
B628
D810
E800
E800
E800
E800
D410
AE68
5595
2BEA
17F4
0C18
03E0
ENDCHAR
STARTCHAR ccaron
ENCODING 269
SWIDTH 736 0
DWIDTH 15 0
BBX 13 22 1 -1
BITMAP
0AC0
0740
0580
0580
0280
0000
07C0
1830
2FE8
57D8
AB20
D4C0
E800
E800
E800
E800
D4C0
AB70
57B8
2FC8
1830
07C0
ENDCHAR
STARTCHAR Dcaron
ENCODING 270
SWIDTH 886 0
DWIDTH 18 0
BBX 16 23 1 0
BITMAP
0660
05A0
02C0
0340
0180
0000
0000
FFF0
FFE8
CF94
D06A
DFD5
D82D
D81B
D81B
D81B
D81B
D82D
DFD6
DFEA
C034
FFC8
FFF0
ENDCHAR
STARTCHAR dcaron
ENCODING 271
SWIDTH 1084 0
DWIDTH 22 0
BBX 20 15 1 0
BITMAP
0000B0
FFE0B0
FFD0B0
C02830
DFD450
DFAA90
D85AE0
D83600
D83600
D85A00
DFAA00
DFD400
C02800
FFD000
FFE000
ENDCHAR
STARTCHAR Dcroat
ENCODING 272
SWIDTH 888 0
DWIDTH 18 0
BBX 18 16 -1 0
BITMAP
3FFC00
3FFA00
33E500
341A80
37F540
360B40
B7C6C0
B7C6C0
3606C0
B7C6C0
360B40
37F580
37FA80
300D00
3FF200
3FFC00
ENDCHAR
STARTCHAR dcroat
ENCODING 273
SWIDTH 833 0
DWIDTH 17 0
BBX 17 14 -1 0
BITMAP
3FF800
3FF400
300A00
37F500
37EA80
361680
F7CD80
F7CD80
361680
37EA80
37F500
300A00
3FF400
3FF800
ENDCHAR
STARTCHAR Emacron
ENCODING 274
SWIDTH 706 0
DWIDTH 14 0
BBX 12 16 1 0
BITMAP
DFF0
DFF0
DFF0
D800
D800
D800
DF80
DF80
D800
DF80
D800
D800
DFF0
D800
DFF0
DFF0
ENDCHAR
STARTCHAR emacron
ENCODING 275
SWIDTH 666 0
DWIDTH 13 0
BBX 12 14 1 0
BITMAP
DFF0
DFF0
D800
DFF0
D800
DFE0
DFE0
D800
DFE0
D800
DFF0
D800
DFF0
DFF0
ENDCHAR
STARTCHAR Ebreve
ENCODING 276
SWIDTH 706 0
DWIDTH 14 0
BBX 12 20 1 0
BITMAP
1F80
0900
0600
0000
DFF0
DFF0
DFF0
D800
D800
D800
DF80
DF80
D800
DF80
D800
D800
DFF0
D800
DFF0
DFF0
ENDCHAR
STARTCHAR ebreve
ENCODING 277
SWIDTH 666 0
DWIDTH 13 0
BBX 12 18 1 0
BITMAP
1D80
1B00
0400
0000
DFF0
DFF0
D800
DFF0
D800
DFE0
DFE0
D800
DFE0
D800
DFF0
D800
DFF0
DFF0
ENDCHAR
STARTCHAR Edotaccent
ENCODING 278
SWIDTH 706 0
DWIDTH 14 0
BBX 12 21 1 0
BITMAP
0F00
0F00
0F00
0000
0000
DFF0
DFF0
DFF0
D800
D800
D800
DF80
DF80
D800
DF80
D800
D800
DFF0
D800
DFF0
DFF0
ENDCHAR
STARTCHAR edotaccent
ENCODING 279
SWIDTH 666 0
DWIDTH 13 0
BBX 12 19 1 0
BITMAP
0F00
0F00
0F00
0000
0000
DFF0
DFF0
D800
DFF0
D800
DFE0
DFE0
D800
DFE0
D800
DFF0
D800
DFF0
DFF0
ENDCHAR
STARTCHAR Eogonek
ENCODING 280
SWIDTH 706 0
DWIDTH 14 0
BBX 12 22 1 -6
BITMAP
DFF0
DFF0
DFF0
D800
D800
D800
DF80
DF80
D800
DF80
D800
D800
DFF0
D800
DFF0
DFF0
0040
0070
0060
0070
0070
0070
ENDCHAR
STARTCHAR eogonek
ENCODING 281
SWIDTH 666 0
DWIDTH 13 0
BBX 12 20 1 -6
BITMAP
DFF0
DFF0
D800
DFF0
D800
DFE0
DFE0
D800
DFE0
D800
DFF0
D800
DFF0
DFF0
0080
00B0
00C0
00D0
00D0
00D0
ENDCHAR
STARTCHAR Ecaron
ENCODING 282
SWIDTH 706 0
DWIDTH 14 0
BBX 12 23 1 0
BITMAP
1580
1680
0B00
0D00
0700
0000
0000
DFF0
DFF0
DFF0
D800
D800
D800
DF80
DF80
D800
DF80
D800
D800
DFF0
D800
DFF0
DFF0
ENDCHAR
STARTCHAR ecaron
ENCODING 283
SWIDTH 666 0
DWIDTH 13 0
BBX 12 21 1 0
BITMAP
1A80
1700
1500
0D00
0E00
0000
0000
DFF0
DFF0
D800
DFF0
D800
DFE0
DFE0
D800
DFE0
D800
DFF0
D800
DFF0
DFF0
ENDCHAR
STARTCHAR Gbreve
ENCODING 286
SWIDTH 908 0
DWIDTH 18 0
BBX 16 21 1 -1
BITMAP
07E0
0360
0080
07E0
09D8
3634
5BEB
6DD4
B628
D810
E800
E800
E817
E817
D817
B637
6DD7
5BF7
37F7
0C17
03E0
ENDCHAR
STARTCHAR gbreve
ENCODING 287
SWIDTH 827 0
DWIDTH 17 0
BBX 15 19 1 -1
BITMAP
0DC0
06C0
0100
07C0
1830
2FE8
57D8
AB20
D4C0
E800
E800
E83A
E83A
D4FA
AB3A
57FA
2FFA
183A
07C0
ENDCHAR
STARTCHAR Gdotaccent
ENCODING 288
SWIDTH 908 0
DWIDTH 18 0
BBX 16 22 1 -1
BITMAP
01C0
01C0
01C0
0000
07E0
09D8
3634
5BEB
6DD4
B628
D810
E800
E800
E817
E817
D817
B637
6DD7
5BF7
37F7
0C17
03E0
ENDCHAR
STARTCHAR gdotaccent
ENCODING 289
SWIDTH 827 0
DWIDTH 17 0
BBX 15 20 1 -1
BITMAP
0380
0380
0380
0000
07C0
1830
2FE8
57D8
AB20
D4C0
E800
E800
E83A
E83A
D4FA
AB3A
57FA
2FFA
183A
07C0
ENDCHAR
STARTCHAR Gcommaaccent
ENCODING 290
SWIDTH 908 0
DWIDTH 18 0
BBX 16 25 1 -8
BITMAP
07E0
09D8
3634
5BEB
6DD4
B628
D810
E800
E800
E817
E817
D817
B637
6DD7
5BF7
37F7
0C17
03E0
02C0
02C0
02C0
00C0
0140
0040
0180
ENDCHAR
STARTCHAR gcommaaccent
ENCODING 291
SWIDTH 827 0
DWIDTH 17 0
BBX 15 16 1 -1
BITMAP
07C0
1830
2FE8
57D8
AB20
D4C0
E800
E800
E83A
E83A
D4FA
AB3A
57FA
2FFA
183A
07C0
ENDCHAR
STARTCHAR Hcircumflex
ENCODING 292
SWIDTH 901 0
DWIDTH 18 0
BBX 16 23 1 0
BITMAP
0180
0340
02C0
05A0
07E0
0000
0000
D81B
D81B
D81B
D81B
D81B
D81B
DFFB
DFFB
D81B
DFFB
D81B
D81B
D81B
D81B
D81B
D81B
ENDCHAR
STARTCHAR hcircumflex
ENCODING 293
SWIDTH 830 0
DWIDTH 17 0
BBX 15 21 1 0
BITMAP
0280
0280
0580
0740
0AC0
0000
0000
D83A
D83A
D83A
D83A
D83A
DFDA
DFDA
D83A
DFFA
D83A
D83A
D83A
D83A
D83A
ENDCHAR
STARTCHAR Hbar
ENCODING 294
SWIDTH 901 0
DWIDTH 18 0
BBX 19 16 -1 0
BITMAP
3606C0
3606C0
F7FEE0
F7FEE0
3606C0
3606C0
37FEC0
37FEC0
3606C0
37FEC0
3606C0
3606C0
3606C0
3606C0
3606C0
3606C0
ENDCHAR
STARTCHAR hbar
ENCODING 295
SWIDTH 830 0
DWIDTH 17 0
BBX 17 14 0 0
BITMAP
6C1D00
EFDD80
6C1D00
EFDD80
6C1D00
6FED00
6FED00
6C1D00
6FFD00
6C1D00
6C1D00
6C1D00
6C1D00
6C1D00
ENDCHAR
STARTCHAR Itilde
ENCODING 296
SWIDTH 338 0
DWIDTH 7 0
BBX 12 22 -3 0
BITMAP
3FB0
4FF0
B010
AFE0
0000
0000
0D80
0D80
0D80
0D80
0D80
0D80
0D80
0D80
0D80
0D80
0D80
0D80
0D80
0D80
0D80
0D80
ENDCHAR
STARTCHAR itilde
ENCODING 297
SWIDTH 337 0
DWIDTH 7 0
BBX 12 20 -3 0
BITMAP
3FB0
4FF0
B010
AFE0
0000
0000
0D80
0D80
0D80
0D80
0D80
0D80
0D80
0D80
0D80
0D80
0D80
0D80
0D80
0D80
ENDCHAR
STARTCHAR Imacron
ENCODING 298
SWIDTH 338 0
DWIDTH 7 0
BBX 5 16 1 0
BITMAP
D8
D8
D8
D8
D8
D8
D8
D8
D8
D8
D8
D8
D8
D8
D8
D8
ENDCHAR
STARTCHAR imacron
ENCODING 299
SWIDTH 337 0
DWIDTH 7 0
BBX 5 14 1 0
BITMAP
D8
D8
D8
D8
D8
D8
D8
D8
D8
D8
D8
D8
D8
D8
ENDCHAR
STARTCHAR Ibreve
ENCODING 300
SWIDTH 338 0
DWIDTH 7 0
BBX 6 20 0 0
BITMAP
FC
6C
10
00
6C
6C
6C
6C
6C
6C
6C
6C
6C
6C
6C
6C
6C
6C
6C
6C
ENDCHAR
STARTCHAR ibreve
ENCODING 301
SWIDTH 337 0
DWIDTH 7 0
BBX 6 18 0 0
BITMAP
FC
6C
10
00
6C
6C
6C
6C
6C
6C
6C
6C
6C
6C
6C
6C
6C
6C
ENDCHAR
STARTCHAR Iogonek
ENCODING 302
SWIDTH 338 0
DWIDTH 7 0
BBX 5 22 1 -6
BITMAP
D8
D8
D8
D8
D8
D8
D8
D8
D8
D8
D8
D8
D8
D8
D8
D8
20
58
50
58
58
58
ENDCHAR
STARTCHAR iogonek
ENCODING 303
SWIDTH 337 0
DWIDTH 7 0
BBX 5 20 1 -6
BITMAP
D8
D8
D8
D8
D8
D8
D8
D8
D8
D8
D8
D8
D8
D8
20
58
50
58
58
58
ENDCHAR
STARTCHAR Idotaccent
ENCODING 304
SWIDTH 338 0
DWIDTH 7 0
BBX 5 21 1 0
BITMAP
70
70
70
00
00
D8
D8
D8
D8
D8
D8
D8
D8
D8
D8
D8
D8
D8
D8
D8
D8
ENDCHAR
STARTCHAR dotlessi
ENCODING 305
SWIDTH 337 0
DWIDTH 7 0
BBX 5 14 1 0
BITMAP
D8
D8
D8
D8
D8
D8
D8
D8
D8
D8
D8
D8
D8
D8
ENDCHAR
STARTCHAR IJ
ENCODING 306
SWIDTH 774 0
DWIDTH 16 0
BBX 14 17 1 -1
BITMAP
D874
D874
D874
D874
D874
D874
D874
D874
D874
D874
D8B4
D8B4
DB58
DBA8
DBD0
D860
0380
ENDCHAR
STARTCHAR ij
ENCODING 307
SWIDTH 729 0
DWIDTH 15 0
BBX 13 16 1 -2
BITMAP
D8E8
D8E8
D8E8
D8E8
D8E8
D8E8
D8E8
D8E8
D8E8
D8E8
D968
DB68
DBB0
D8D0
0360
0380
ENDCHAR
STARTCHAR Jcircumflex
ENCODING 308
SWIDTH 434 0
DWIDTH 9 0
BBX 8 24 0 -1
BITMAP
0A
0E
15
1D
2B
00
00
1B
1B
1B
1B
1B
1B
1B
1B
1B
1B
1B
2D
D5
EA
F4
08
F0
ENDCHAR
STARTCHAR jcircumflex
ENCODING 309
SWIDTH 393 0
DWIDTH 8 0
BBX 8 23 0 -2
BITMAP
14
1C
2A
36
37
00
00
36
36
36
36
36
36
36
36
36
36
36
DA
EC
34
D8
E0
ENDCHAR
STARTCHAR Kcommaaccent
ENCODING 310
SWIDTH 815 0
DWIDTH 16 0
BBX 15 24 1 -8
BITMAP
D87A
D8AC
D8D4
D958
D9A8
DAB0
DB50
DDA0
DD60
DAD0
DAB0
D968
D958
D8B4
D8AC
D85A
0000
0380
0380
0380
0180
0380
0080
0300
ENDCHAR
STARTCHAR kcommaaccent
ENCODING 311
SWIDTH 801 0
DWIDTH 16 0
BBX 15 22 1 -8
BITMAP
D87E
D8B4
D8D8
D968
D9B0
DAD0
DD60
DDE0
DAD0
D9B0
D968
D8D8
D8B4
D86E
0000
0580
0580
0580
0180
0280
0080
0300
ENDCHAR
STARTCHAR kgreenlandic
ENCODING 312
SWIDTH 801 0
DWIDTH 16 0
BBX 15 14 1 0
BITMAP
D87E
D8B4
D8D8
D968
D9B0
DAD0
DD60
DDE0
DAD0
D9B0
D968
D8D8
D8B4
D86E
ENDCHAR
STARTCHAR Lacute
ENCODING 313
SWIDTH 604 0
DWIDTH 12 0
BBX 12 23 1 0
BITMAP
0040
01B0
06C0
0B00
0400
0000
0000
D800
D800
D800
D800
D800
D800
D800
D800
D800
D800
D800
D800
DFC0
D800
DFC0
DFC0
ENDCHAR
STARTCHAR lacute
ENCODING 314
SWIDTH 583 0
DWIDTH 12 0
BBX 10 21 1 0
BITMAP
0300
0D80
3600
5800
2000
0000
0000
D800
D800
D800
D800
D800
D800
D800
D800
D800
D800
DFC0
D800
DFC0
DFC0
ENDCHAR
STARTCHAR Lcommaaccent
ENCODING 315
SWIDTH 604 0
DWIDTH 12 0
BBX 10 24 1 -8
BITMAP
D800
D800
D800
D800
D800
D800
D800
D800
D800
D800
D800
D800
DFC0
D800
DFC0
DFC0
0000
1600
1600
1600
0600
1A00
0600
1800
ENDCHAR
STARTCHAR lcommaaccent
ENCODING 316
SWIDTH 583 0
DWIDTH 12 0
BBX 10 22 1 -8
BITMAP
D800
D800
D800
D800
D800
D800
D800
D800
D800
D800
DFC0
D800
DFC0
DFC0
0000
1A00
1A00
1A00
0A00
1A00
0400
1800
ENDCHAR
STARTCHAR Lcaron
ENCODING 317
SWIDTH 856 0
DWIDTH 17 0
BBX 15 17 1 0
BITMAP
000E
D80E
D80E
D806
D806
D80A
D80C
D800
D800
D800
D800
D800
D800
DFC0
D800
DFC0
DFC0
ENDCHAR
STARTCHAR lcaron
ENCODING 318
SWIDTH 584 0
DWIDTH 12 0
BBX 10 15 1 0
BITMAP
02C0
DAC0
DAC0
D8C0
D940
DA80
DB00
D800
D800
D800
D800
DFC0
D800
DFC0
DFC0
ENDCHAR
STARTCHAR Ldot
ENCODING 319
SWIDTH 604 0
DWIDTH 12 0
BBX 10 16 1 0
BITMAP
D800
D800
D800
D800
D800
D800
DBC0
DBC0
DBC0
D800
D800
D800
DFC0
D800
DFC0
DFC0
ENDCHAR
STARTCHAR ldot
ENCODING 320
SWIDTH 582 0
DWIDTH 12 0
BBX 10 14 1 0
BITMAP
D800
D800
D800
DBC0
DBC0
DBC0
D800
D800
D800
D800
DFC0
D800
DFC0
DFC0
ENDCHAR
STARTCHAR Lslash
ENCODING 321
SWIDTH 604 0
DWIDTH 12 0
BBX 12 16 -1 0
BITMAP
3600
3600
3600
3640
3780
37C0
7640
B780
B600
B600
3600
3600
37F0
3600
37F0
37F0
ENDCHAR
STARTCHAR lslash
ENCODING 322
SWIDTH 581 0
DWIDTH 12 0
BBX 12 14 -1 0
BITMAP
3600
3600
3640
3780
36C0
7740
B780
B600
B600
3600
37F0
3600
37F0
37F0
ENDCHAR
STARTCHAR Nacute
ENCODING 323
SWIDTH 877 0
DWIDTH 18 0
BBX 16 23 1 0
BITMAP
0008
0074
0198
0260
0180
0000
0000
BC1D
EA1D
D61D
ED1D
DA9D
D59D
DB5D
D6DD
DDAD
DB5D
DAB5
D96D
D8D5
D8AD
D86B
D877
ENDCHAR
STARTCHAR nacute
ENCODING 324
SWIDTH 787 0
DWIDTH 16 0
BBX 14 21 1 0
BITMAP
0010
0068
01B0
06C0
0300
0000
0000
B42C
EA2C
D62C
ED2C
EB2C
D6AC
ED6C
DB6C
D6AC
D56C
D2D4
D1B4
D16C
D0F4
ENDCHAR
STARTCHAR Ncommaaccent
ENCODING 325
SWIDTH 877 0
DWIDTH 18 0
BBX 16 24 1 -8
BITMAP
BC1D
EA1D
D61D
ED1D
DA9D
D59D
DB5D
D6DD
DDAD
DB5D
DAB5
D96D
D8D5
D8AD
D86B
D877
0000
0340
0340
0340
0140
0340
0080
0300
ENDCHAR
STARTCHAR ncommaaccent
ENCODING 326
SWIDTH 787 0
DWIDTH 16 0
BBX 14 22 1 -8
BITMAP
B42C
EA2C
D62C
ED2C
EB2C
D6AC
ED6C
DB6C
D6AC
D56C
D2D4
D1B4
D16C
D0F4
0000
0680
0680
0680
0280
0680
0100
0600
ENDCHAR
STARTCHAR Ncaron
ENCODING 327
SWIDTH 877 0
DWIDTH 18 0
BBX 16 23 1 0
BITMAP
06A0
05C0
0340
0340
0380
0000
0000
BC1D
EA1D
D61D
ED1D
DA9D
D59D
DB5D
D6DD
DDAD
DB5D
DAB5
D96D
D8D5
D8AD
D86B
D877
ENDCHAR
STARTCHAR ncaron
ENCODING 328
SWIDTH 787 0
DWIDTH 16 0
BBX 14 21 1 0
BITMAP
0D40
0B80
0580
0680
0300
0000
0000
B42C
EA2C
D62C
ED2C
EB2C
D6AC
ED6C
DB6C
D6AC
D56C
D2D4
D1B4
D16C
D0F4
ENDCHAR
STARTCHAR Eng
ENCODING 330
SWIDTH 874 0
DWIDTH 17 0
BBX 16 22 1 -6
BITMAP
BC2D
DA2D
B52D
EB2D
DAAD
D5AD
DB6D
D6AD
DD6D
DAED
D9AD
D96D
D8ED
D8AD
D86D
D86D
002D
00F6
0036
00DA
00E4
00F8
ENDCHAR
STARTCHAR eng
ENCODING 331
SWIDTH 691 0
DWIDTH 14 0
BBX 12 19 1 -5
BITMAP
B4B0
EAB0
D6B0
EDB0
EBB0
D6B0
EDB0
DAB0
D6B0
D5B0
D2B0
D1B0
D1B0
D0B0
00B0
00D0
0150
01A0
01C0
ENDCHAR
STARTCHAR Omacron
ENCODING 332
SWIDTH 933 0
DWIDTH 19 0
BBX 17 18 1 -1
BITMAP
07E000
09D800
363400
5BEA00
6DD500
B62A80
D81680
E80D80
E80D80
E80D80
E80D80
D41680
AE6B00
559500
2BEA00
17F400
0C1800
03E000
ENDCHAR
STARTCHAR omacron
ENCODING 333
SWIDTH 833 0
DWIDTH 17 0
BBX 15 16 1 -1
BITMAP
07C0
1830
2FE8
57D4
AB2C
D4DA
E836
E836
E836
E836
D4DA
AB6C
5794
2FE8
1830
07C0
ENDCHAR
STARTCHAR Obreve
ENCODING 334
SWIDTH 933 0
DWIDTH 19 0
BBX 17 21 1 -1
BITMAP
07E000
036000
008000
07E000
09D800
363400
5BEA00
6DD500
B62A80
D81680
E80D80
E80D80
E80D80
E80D80
D41680
AE6B00
559500
2BEA00
17F400
0C1800
03E000
ENDCHAR
STARTCHAR obreve
ENCODING 335
SWIDTH 833 0
DWIDTH 17 0
BBX 15 19 1 -1
BITMAP
0DC0
06C0
0100
07C0
1830
2FE8
57D4
AB2C
D4DA
E836
E836
E836
E836
D4DA
AB6C
5794
2FE8
1830
07C0
ENDCHAR
STARTCHAR Ohungarumlaut
ENCODING 336
SWIDTH 933 0
DWIDTH 19 0
BBX 19 24 1 -1
BITMAP
00C080
032360
0CCD80
173600
081800
000000
07E000
09D800
363400
5BEA00
6DD500
B62A80
D81680
E80D80
E80D80
E80D80
E80D80
D41680
AE6B00
559500
2BEA00
17F400
0C1800
03E000
ENDCHAR
STARTCHAR ohungarumlaut
ENCODING 337
SWIDTH 833 0
DWIDTH 17 0
BBX 17 22 1 -1
BITMAP
018100
064680
1B9B00
2C6C00
103000
000000
07C000
183000
2FE800
57D400
AB2C00
D4DA00
E83600
E83600
E83600
E83600
D4DA00
AB6C00
579400
2FE800
183000
07C000
ENDCHAR
STARTCHAR OE
ENCODING 338
SWIDTH 1317 0
DWIDTH 26 0
BBX 25 18 1 -1
BITMAP
07E00000
19DDFF80
2635FF80
5BEDFF80
6DD58000
B62D8000
D8158000
E80DF800
E80DF800
E80D8000
E80DF800
D8158000
B66D8000
6D95FF80
5BED8000
37F5FF80
0C1DFF80
03E00000
ENDCHAR
STARTCHAR oe
ENCODING 339
SWIDTH 1174 0
DWIDTH 23 0
BBX 22 16 1 -1
BITMAP
07C000
1837FC
2FF7FC
57D600
AB37FC
D4D600
E837F8
E837F8
E83600
E837F8
D4D600
AB77FC
579600
2FF7FC
1837FC
07C000
ENDCHAR
STARTCHAR Racute
ENCODING 340
SWIDTH 843 0
DWIDTH 17 0
BBX 15 23 1 0
BITMAP
00C0
0320
0CC0
1700
0800
0000
0000
FFF0
FFEC
CF9C
D07A
DFF6
D82E
DFF6
D816
DFEA
DFF4
D818
DFE8
D8D8
D8B4
D874
D86C
ENDCHAR
STARTCHAR Rcommaaccent
ENCODING 342
SWIDTH 843 0
DWIDTH 17 0
BBX 15 24 1 -8
BITMAP
FFF0
FFEC
CF9C
D07A
DFF6
D82E
DFF6
D816
DFEA
DFF4
D818
DFE8
D8D8
D8B4
D874
D86C
0000
0580
0580
0580
0180
0680
0100
0600
ENDCHAR
STARTCHAR rcommaaccent
ENCODING 343
SWIDTH 831 0
DWIDTH 17 0
BBX 15 22 1 -8
BITMAP
FFF0
FFE8
C014
DFEA
DFD6
D836
DFD6
DFEA
D834
DFC8
DFF0
D968
D8D8
D8B4
0000
0680
0680
0680
0280
0680
0100
0600
ENDCHAR
STARTCHAR Rcaron
ENCODING 344
SWIDTH 843 0
DWIDTH 17 0
BBX 15 23 1 0
BITMAP
3500
2E00
2A00
1A00
1400
0000
0000
FFF0
FFEC
CF9C
D07A
DFF6
D82E
DFF6
D816
DFEA
DFF4
D818
DFE8
D8D8
D8B4
D874
D86C
ENDCHAR
STARTCHAR rcaron
ENCODING 345
SWIDTH 831 0
DWIDTH 17 0
BBX 15 21 1 0
BITMAP
0AC0
06C0
0540
0380
0280
0000
0000
FFF0
FFE8
C014
DFEA
DFD6
D836
DFD6
DFEA
D834
DFC8
DFF0
D968
D8D8
D8B4
ENDCHAR
STARTCHAR Sacute
ENCODING 346
SWIDTH 682 0
DWIDTH 14 0
BBX 13 24 0 -1
BITMAP
0010
0068
01B0
06C0
0300
0000
0FC0
1330
2CE8
57D0
6BE0
B400
B780
6860
57D0
2FA8
1C68
03D8
08D8
1768
2FA8
DFD0
3060
0F80
ENDCHAR
STARTCHAR sacute
ENCODING 347
SWIDTH 683 0
DWIDTH 14 0
BBX 13 21 0 0
BITMAP
0010
0068
01B0
06C0
0300
0000
0300
1CF0
2FC8
57B0
A860
B000
6FC0
5F30
30E8
0FE8
0058
1858
27A8
DFD0
3FE0
ENDCHAR
STARTCHAR Scircumflex
ENCODING 348
SWIDTH 682 0
DWIDTH 14 0
BBX 13 24 0 -1
BITMAP
0300
0680
0680
0B80
0D40
0000
0FC0
1330
2CE8
57D0
6BE0
B400
B780
6860
57D0
2FA8
1C68
03D8
08D8
1768
2FA8
DFD0
3060
0F80
ENDCHAR
STARTCHAR scircumflex
ENCODING 349
SWIDTH 683 0
DWIDTH 14 0
BBX 13 21 0 0
BITMAP
0300
0680
0680
0B80
0D40
0000
0300
1CF0
2FC8
57B0
A860
B000
6FC0
5F30
30E8
0FE8
0058
1858
27A8
DFD0
3FE0
ENDCHAR
STARTCHAR Scedilla
ENCODING 350
SWIDTH 682 0
DWIDTH 14 0
BBX 13 24 0 -7
BITMAP
0FC0
1330
2CE8
57D0
6BE0
B400
B780
6860
57D0
2FA8
1C68
03D8
08D8
1768
2FA8
DFD0
3060
0F80
0900
1700
1400
1700
0800
0700
ENDCHAR
STARTCHAR scedilla
ENCODING 351
SWIDTH 683 0
DWIDTH 14 0
BBX 13 21 0 -7
BITMAP
1FF0
2FC8
57B0
A860
B000
6FC0
5F30
30E8
0FE8
0058
1858
27A8
DFD0
3CE0
0300
0D00
1700
1400
1700
0800
0700
ENDCHAR
STARTCHAR Scaron
ENCODING 352
SWIDTH 682 0
DWIDTH 14 0
BBX 13 24 0 -1
BITMAP
0D40
0B40
0580
0680
0300
0000
0FC0
1330
2CE8
57D0
6BE0
B400
B780
6860
57D0
2FA8
1C68
03D8
08D8
1768
2FA8
DFD0
3060
0F80
ENDCHAR
STARTCHAR scaron
ENCODING 353
SWIDTH 683 0
DWIDTH 14 0
BBX 13 21 0 0
BITMAP
0D40
0B40
0580
0680
0300
0000
0300
1CF0
2FC8
57B0
A860
B000
6FC0
5F30
30E8
0FE8
0058
1858
27A8
DFD0
3FE0
ENDCHAR
STARTCHAR Tcommaaccent
ENCODING 354
SWIDTH 591 0
DWIDTH 12 0
BBX 10 23 1 -7
BITMAP
FFC0
FFC0
D1C0
2E00
2E00
2E00
2E00
2E00
2E00
2E00
2E00
2E00
2E00
2E00
2E00
2E00
0C00
3400
5C00
5000
5C00
2000
1C00
ENDCHAR
STARTCHAR tcommaaccent
ENCODING 355
SWIDTH 588 0
DWIDTH 12 0
BBX 10 21 1 -7
BITMAP
FFC0
FFC0
0000
FFC0
2E00
2E00
2E00
2E00
2E00
2E00
2E00
2E00
2E00
2E00
0C00
3400
5C00
5000
5C00
2000
1C00
ENDCHAR
STARTCHAR Tcaron
ENCODING 356
SWIDTH 591 0
DWIDTH 12 0
BBX 10 23 1 0
BITMAP
3500
2E00
1600
1A00
0C00
0000
0000
FFC0
FFC0
D1C0
2E00
2E00
2E00
2E00
2E00
2E00
2E00
2E00
2E00
2E00
2E00
2E00
2E00
ENDCHAR
STARTCHAR tcaron
ENCODING 357
SWIDTH 842 0
DWIDTH 17 0
BBX 15 15 1 0
BITMAP
0016
FFD6
FFD6
0006
FFCE
2E02
2E0C
2E00
2E00
2E00
2E00
2E00
2E00
2E00
2E00
ENDCHAR
STARTCHAR Tbar
ENCODING 358
SWIDTH 591 0
DWIDTH 12 0
BBX 10 16 1 0
BITMAP
FFC0
FFC0
D1C0
2E00
2E00
2E00
EEC0
EEC0
2E00
EEC0
2E00
2E00
2E00
2E00
2E00
2E00
ENDCHAR
STARTCHAR tbar
ENCODING 359
SWIDTH 588 0
DWIDTH 12 0
BBX 10 14 1 0
BITMAP
FFC0
FFC0
0000
FFC0
2E00
2E00
2E00
EEC0
EEC0
EEC0
2E00
2E00
2E00
2E00
ENDCHAR
STARTCHAR Utilde
ENCODING 360
SWIDTH 905 0
DWIDTH 18 0
BBX 16 23 1 -1
BITMAP
1FCC
23F4
2C04
33F8
0000
0000
E817
E817
E817
E817
E817
E817
E817
E817
E817
D817
D81B
B66D
6DB6
5BDA
37E4
0C38
03C0
ENDCHAR
STARTCHAR utilde
ENCODING 361
SWIDTH 795 0
DWIDTH 16 0
BBX 14 21 1 -1
BITMAP
3F98
4FE8
5010
6FE0
0000
0000
E86C
E86C
E86C
E86C
E86C
E86C
E86C
E86C
D86C
D4B4
AB54
57A8
2FD0
1860
0780
ENDCHAR
STARTCHAR Umacron
ENCODING 362
SWIDTH 905 0
DWIDTH 18 0
BBX 16 17 1 -1
BITMAP
E817
E817
E817
E817
E817
E817
E817
E817
E817
D817
D81B
B66D
6DB6
5BDA
37E4
0C38
03C0
ENDCHAR
STARTCHAR umacron
ENCODING 363
SWIDTH 795 0
DWIDTH 16 0
BBX 14 15 1 -1
BITMAP
E86C
E86C
E86C
E86C
E86C
E86C
E86C
E86C
D86C
D4B4
AB54
57A8
2FD0
1860
0780
ENDCHAR
STARTCHAR Ubreve
ENCODING 364
SWIDTH 905 0
DWIDTH 18 0
BBX 16 21 1 -1
BITMAP
07E0
0240
0180
0000
E817
E817
E817
E817
E817
E817
E817
E817
E817
D817
D81B
B66D
6DB6
5BDA
37E4
0C38
03C0
ENDCHAR
STARTCHAR ubreve
ENCODING 365
SWIDTH 795 0
DWIDTH 16 0
BBX 14 19 1 -1
BITMAP
0FC0
0480
0300
0000
E86C
E86C
E86C
E86C
E86C
E86C
E86C
E86C
D86C
D4B4
AB54
57A8
2FD0
1860
0780
ENDCHAR
STARTCHAR Uring
ENCODING 366
SWIDTH 905 0
DWIDTH 18 0
BBX 16 24 1 -1
BITMAP
0180
03C0
0660
0660
03C0
0180
0000
E817
E817
E817
E817
E817
E817
E817
E817
E817
D817
D81B
B66D
6DB6
5BDA
37E4
0C38
03C0
ENDCHAR
STARTCHAR uring
ENCODING 367
SWIDTH 795 0
DWIDTH 16 0
BBX 14 22 1 -1
BITMAP
0300
0780
0CC0
0CC0
0780
0300
0000
E86C
E86C
E86C
E86C
E86C
E86C
E86C
E86C
D86C
D4B4
AB54
57A8
2FD0
1860
0780
ENDCHAR
STARTCHAR Uhungarumlaut
ENCODING 368
SWIDTH 905 0
DWIDTH 18 0
BBX 18 24 1 -1
BITMAP
00C180
036640
0D9980
162E00
081000
000000
000000
E81700
E81700
E81700
E81700
E81700
E81700
E81700
E81700
E81700
D81700
D81B00
B66D00
6DB600
5BDA00
37E400
0C3800
03C000
ENDCHAR
STARTCHAR uhungarumlaut
ENCODING 369
SWIDTH 795 0
DWIDTH 16 0
BBX 17 22 1 -1
BITMAP
018300
06CD80
1B3600
2C5800
102000
000000
000000
E86C00
E86C00
E86C00
E86C00
E86C00
E86C00
E86C00
E86C00
D86C00
D4B400
AB5400
57A800
2FD000
186000
078000
ENDCHAR
STARTCHAR Uogonek
ENCODING 370
SWIDTH 905 0
DWIDTH 18 0
BBX 16 23 1 -7
BITMAP
E817
E817
E817
E817
E817
E817
E817
E817
E817
D817
D81B
B66D
6DB6
5BDA
37E4
0C38
03C0
0200
0580
0600
0680
0680
0680
ENDCHAR
STARTCHAR uogonek
ENCODING 371
SWIDTH 794 0
DWIDTH 16 0
BBX 14 21 1 -7
BITMAP
E86C
E86C
E86C
E86C
E86C
E86C
E86C
E86C
D86C
D4B4
AB54
57A8
2FD0
1860
0780
0800
0E00
0C00
0E00
0E00
0E00
ENDCHAR
STARTCHAR Ycircumflex
ENCODING 374
SWIDTH 789 0
DWIDTH 16 0
BBX 15 23 0 0
BITMAP
0180
0340
02C0
05C0
06A0
0000
0008
F436
6C3A
5A6C
3674
2DB8
1AE8
1770
0DB0
0AE0
0760
05A0
05A0
05A0
05A0
05A0
05A0
ENDCHAR
STARTCHAR ycircumflex
ENCODING 375
SWIDTH 733 0
DWIDTH 15 0
BBX 14 21 0 0
BITMAP
0280
0380
0540
0740
0AC0
0000
0000
B47C
6C74
5AD8
36E8
2D70
1BD0
16E0
0B60
05C0
06C0
06C0
06C0
06C0
06C0
ENDCHAR
STARTCHAR Ydieresis
ENCODING 376
SWIDTH 789 0
DWIDTH 16 0
BBX 15 20 0 0
BITMAP
1A68
1A68
0000
0008
F436
6C3A
5A6C
3674
2DB8
1AE8
1770
0DB0
0AE0
0760
05A0
05A0
05A0
05A0
05A0
05A0
ENDCHAR
STARTCHAR Zacute
ENCODING 377
SWIDTH 854 0
DWIDTH 17 0
BBX 15 23 1 0
BITMAP
0018
006C
01B0
02C0
0100
0000
0000
FFFE
FFF6
FFDA
002E
FED4
016A
06B4
0B58
35A0
5AC0
AD00
D6FE
EBFE
B400
5FFE
FFFE
ENDCHAR
STARTCHAR zacute
ENCODING 378
SWIDTH 714 0
DWIDTH 14 0
BBX 13 21 1 0
BITMAP
0030
00D8
0360
0580
0200
0000
0000
FF58
FEA8
02D0
FD60
06A0
0B40
1580
1A80
2B00
5500
5BF8
AC00
D7F8
EFF8
ENDCHAR
STARTCHAR Zdotaccent
ENCODING 379
SWIDTH 854 0
DWIDTH 17 0
BBX 15 21 1 0
BITMAP
0380
0380
0380
0000
0000
FFFE
FFF6
FFDA
002E
FED4
016A
06B4
0B58
35A0
5AC0
AD00
D6FE
EBFE
B400
5FFE
FFFE
ENDCHAR
STARTCHAR zdotaccent
ENCODING 380
SWIDTH 714 0
DWIDTH 14 0
BBX 13 19 1 0
BITMAP
0F00
0F00
0F00
0000
0000
FF58
FEA8
02D0
FD60
06A0
0B40
1580
1A80
2B00
5500
5BF8
AC00
D7F8
EFF8
ENDCHAR
STARTCHAR Zcaron
ENCODING 381
SWIDTH 854 0
DWIDTH 17 0
BBX 15 23 1 0
BITMAP
0AA0
06C0
0540
0380
0280
0000
0000
FFFE
FFF6
FFDA
002E
FED4
016A
06B4
0B58
35A0
5AC0
AD00
D6FE
EBFE
B400
5FFE
FFFE
ENDCHAR
STARTCHAR zcaron
ENCODING 382
SWIDTH 714 0
DWIDTH 14 0
BBX 13 21 1 0
BITMAP
1580
0E80
0B00
0B00
0500
0000
0000
FF58
FEA8
02D0
FD60
06A0
0B40
1580
1A80
2B00
5500
5BF8
AC00
D7F8
EFF8
ENDCHAR
STARTCHAR florin
ENCODING 402
SWIDTH 388 0
DWIDTH 8 0
BBX 6 18 1 -1
BITMAP
1C
2C
50
6C
68
68
EC
EC
EC
68
68
68
68
68
68
A8
D0
E0
ENDCHAR
STARTCHAR uni01C4
ENCODING 452
SWIDTH 1740 0
DWIDTH 35 0
BBX 33 23 1 0
BITMAP
000002B000
000001D000
0000016000
0000016000
000000A000
0000000000
0000000000
FFF03FFF80
FFE83FFB80
CF943FE580
D06A001A80
DFD63FAD00
D82D00D680
D81B016B00
D81B06B400
D81B0B5800
D81B35A000
D82D5AC000
DFD62D3F80
DFEA56FF80
C034290000
FFC817FF80
FFF03FFF80
ENDCHAR
STARTCHAR uni01C5
ENCODING 453
SWIDTH 1601 0
DWIDTH 32 0
BBX 30 21 1 0
BITMAP
00000660
000005A0
000002C0
00000340
00000180
FFF00000
FFE80000
CF943FDC
D06A3FAC
DFD600D4
D82D3F68
D81B02B0
D81B0350
D81B0560
D81B0AA0
D82D0B40
DFD61580
DFEA1AFC
C0342D00
FFC855FC
FFF06BFC
ENDCHAR
STARTCHAR Scommaaccent
ENCODING 536
SWIDTH 682 0
DWIDTH 14 0
BBX 13 25 0 -8
BITMAP
0FC0
1330
2CE8
57D0
6BE0
B400
B780
6860
57D0
2FA8
1C68
03D8
08D8
1768
2FA8
DFD0
3060
0F80
0680
0680
0680
0280
0700
0100
0600
ENDCHAR
STARTCHAR scommaaccent
ENCODING 537
SWIDTH 683 0
DWIDTH 14 0
BBX 13 22 0 -8
BITMAP
1FF0
2FC8
57B0
A860
B000
6FC0
5F30
30E8
0FE8
0058
1858
27A8
DFD0
3FE0
0000
0680
0680
0680
0280
0680
0100
0600
ENDCHAR
STARTCHAR uni021A
ENCODING 538
SWIDTH 591 0
DWIDTH 12 0
BBX 10 24 1 -8
BITMAP
FFC0
FFC0
D1C0
2E00
2E00
2E00
2E00
2E00
2E00
2E00
2E00
2E00
2E00
2E00
2E00
2E00
0000
1A00
1A00
1A00
0A00
1A00
0400
1800
ENDCHAR
STARTCHAR uni021B
ENCODING 539
SWIDTH 588 0
DWIDTH 12 0
BBX 10 22 1 -8
BITMAP
FFC0
FFC0
0000
FFC0
2E00
2E00
2E00
2E00
2E00
2E00
2E00
2E00
2E00
2E00
0000
1A00
1A00
1A00
0A00
1A00
0400
1800
ENDCHAR
STARTCHAR uni0237
ENCODING 567
SWIDTH 393 0
DWIDTH 8 0
BBX 7 16 0 -2
BITMAP
36
36
36
36
36
36
36
36
36
36
36
DA
EC
34
D8
E0
ENDCHAR
STARTCHAR circumflex
ENCODING 710
SWIDTH 376 0
DWIDTH 8 0
BBX 6 5 1 15
BITMAP
30
68
68
B8
D4
ENDCHAR
STARTCHAR caron
ENCODING 711
SWIDTH 362 0
DWIDTH 7 0
BBX 6 5 1 15
BITMAP
D4
D8
A8
70
50
ENDCHAR
STARTCHAR breve
ENCODING 728
SWIDTH 360 0
DWIDTH 7 0
BBX 6 2 1 16
BITMAP
D4
F8
ENDCHAR
STARTCHAR dotaccent
ENCODING 729
SWIDTH 255 0
DWIDTH 5 0
BBX 3 3 1 13
BITMAP
E0
E0
E0
ENDCHAR
STARTCHAR ring
ENCODING 730
SWIDTH 330 0
DWIDTH 7 0
BBX 5 6 1 15
BITMAP
70
E8
98
D8
B8
60
ENDCHAR
STARTCHAR ogonek
ENCODING 731
SWIDTH 250 0
DWIDTH 5 0
BBX 3 7 1 -6
BITMAP
60
80
E0
C0
E0
E0
E0
ENDCHAR
STARTCHAR tilde
ENCODING 732
SWIDTH 665 0
DWIDTH 13 0
BBX 12 4 1 11
BITMAP
7F50
9FD0
E020
DFC0
ENDCHAR
STARTCHAR hungarumlaut
ENCODING 733
SWIDTH 837 0
DWIDTH 17 0
BBX 15 5 1 14
BITMAP
060C
1B32
6CDC
B160
4080
ENDCHAR
STARTCHAR uni0307
ENCODING 775
SWIDTH 260 0
DWIDTH 5 0
BBX 3 3 1 8
BITMAP
E0
E0
E0
ENDCHAR
STARTCHAR uni030F
ENCODING 783
SWIDTH 554 0
DWIDTH 11 0
BBX 9 7 1 15
BITMAP
CA00
C600
A500
6500
5300
5280
3980
ENDCHAR
STARTCHAR uni0311
ENCODING 785
SWIDTH 375 0
DWIDTH 8 0
BBX 6 2 1 16
BITMAP
78
FC
ENDCHAR
STARTCHAR uni0326
ENCODING 806
SWIDTH 274 0
DWIDTH 5 0
BBX 3 7 1 -8
BITMAP
E0
E0
E0
60
E0
20
C0
ENDCHAR
STARTCHAR Omega
ENCODING 937
SWIDTH 92 0
DWIDTH 2 0
BBX 1 1 0 0
BITMAP
00
ENDCHAR
STARTCHAR uni00B5.dup2
ENCODING 956
SWIDTH 802 0
DWIDTH 16 0
BBX 14 16 1 -2
BITMAP
D85C
D85C
D85C
D85C
D85C
D85C
D85C
D85C
D86C
DCAC
DB54
DFA8
DFD0
D860
DF80
D800
ENDCHAR
STARTCHAR pi
ENCODING 960
SWIDTH 92 0
DWIDTH 2 0
BBX 1 1 0 0
BITMAP
00
ENDCHAR
STARTCHAR endash
ENCODING 8211
SWIDTH 473 0
DWIDTH 9 0
BBX 8 4 1 6
BITMAP
FF
FF
00
FF
ENDCHAR
STARTCHAR emdash
ENCODING 8212
SWIDTH 615 0
DWIDTH 12 0
BBX 10 4 1 6
BITMAP
FFC0
FFC0
0000
FFC0
ENDCHAR
STARTCHAR quoteleft
ENCODING 8216
SWIDTH 254 0
DWIDTH 5 0
BBX 3 6 1 10
BITMAP
60
A0
C0
E0
E0
E0
ENDCHAR
STARTCHAR quoteright
ENCODING 8217
SWIDTH 251 0
DWIDTH 5 0
BBX 3 6 1 10
BITMAP
E0
E0
E0
60
A0
C0
ENDCHAR
STARTCHAR quotesinglbase
ENCODING 8218
SWIDTH 252 0
DWIDTH 5 0
BBX 3 7 1 -3
BITMAP
E0
E0
E0
60
E0
20
C0
ENDCHAR
STARTCHAR quotedblleft
ENCODING 8220
SWIDTH 535 0
DWIDTH 11 0
BBX 9 6 1 10
BITMAP
6380
A480
C500
E580
E580
E580
ENDCHAR
STARTCHAR quotedblright
ENCODING 8221
SWIDTH 532 0
DWIDTH 11 0
BBX 9 6 1 10
BITMAP
E580
E580
E580
6180
A680
C700
ENDCHAR
STARTCHAR quotedblbase
ENCODING 8222
SWIDTH 533 0
DWIDTH 11 0
BBX 9 7 1 -3
BITMAP
E580
E580
E580
6180
E280
2480
C700
ENDCHAR
STARTCHAR dagger
ENCODING 8224
SWIDTH 636 0
DWIDTH 13 0
BBX 11 16 1 0
BITMAP
1B00
1B00
1B00
FBE0
FBE0
1B00
FBE0
1B00
1B00
1B00
1B00
1B00
1B00
1B00
1B00
1B00
ENDCHAR
STARTCHAR daggerdbl
ENCODING 8225
SWIDTH 648 0
DWIDTH 13 0
BBX 11 16 1 0
BITMAP
1B00
1B00
1B00
FBE0
FBE0
1B00
FBE0
1B00
1B00
FBE0
1B00
FBE0
FBE0
1B00
1B00
1B00
ENDCHAR
STARTCHAR bullet
ENCODING 8226
SWIDTH 501 0
DWIDTH 10 0
BBX 8 8 1 3
BITMAP
7E
BD
C3
C3
C3
C3
BD
7E
ENDCHAR
STARTCHAR ellipsis
ENCODING 8230
SWIDTH 676 0
DWIDTH 14 0
BBX 12 4 1 0
BITMAP
EFF0
0000
EFF0
EFF0
ENDCHAR
STARTCHAR perthousand
ENCODING 8240
SWIDTH 447 0
DWIDTH 9 0
BBX 9 18 0 -2
BITMAP
0680
0B00
0B00
0D00
0D00
1600
1600
1A00
1A00
2C00
2C00
3400
3400
5800
5800
6800
7000
B000
ENDCHAR
STARTCHAR guilsinglleft
ENCODING 8249
SWIDTH 465 0
DWIDTH 9 0
BBX 8 10 1 2
BITMAP
07
19
6E
B7
D8
66
FD
33
0E
01
ENDCHAR
STARTCHAR guilsinglright
ENCODING 8250
SWIDTH 465 0
DWIDTH 9 0
BBX 8 10 1 2
BITMAP
C0
B8
66
DD
3B
66
BB
DC
60
80
ENDCHAR
STARTCHAR fraction
ENCODING 8260
SWIDTH 447 0
DWIDTH 9 0
BBX 9 18 0 -2
BITMAP
0680
0B00
0B00
0D00
0D00
1600
1600
1A00
1A00
2C00
2C00
3400
3400
5800
5800
6800
7000
B000
ENDCHAR
STARTCHAR uni2074
ENCODING 8308
SWIDTH 528 0
DWIDTH 11 0
BBX 9 13 1 3
BITMAP
1A00
2C00
3400
5800
6800
B300
D300
FF80
FF80
0000
FF80
0300
0300
ENDCHAR
STARTCHAR Euro
ENCODING 8364
SWIDTH 781 0
DWIDTH 16 0
BBX 14 18 1 -1
BITMAP
01F8
06E4
0B1C
15F8
2AF0
3508
5A00
EFE0
6C00
EFE0
6C00
5A00
3598
2A60
15F8
0BFC
0604
01F8
ENDCHAR
STARTCHAR trademark
ENCODING 8482
SWIDTH 1503 0
DWIDTH 30 0
BBX 28 12 1 4
BITMAP
FFCD00F0
FFDA8170
E5D681B0
1A1542D0
1A16C370
1A16A5B0
1A1766B0
1A16DB70
1A16B570
1A166A70
1A165A70
1A163470
ENDCHAR
STARTCHAR partialdiff
ENCODING 8706
SWIDTH 108 0
DWIDTH 2 0
BBX 1 1 0 0
BITMAP
00
ENDCHAR
STARTCHAR uni2206
ENCODING 8710
SWIDTH 108 0
DWIDTH 2 0
BBX 1 1 0 0
BITMAP
00
ENDCHAR
STARTCHAR product
ENCODING 8719
SWIDTH 521 0
DWIDTH 10 0
BBX 9 14 1 0
BITMAP
2C00
3A00
5600
6D00
AB00
BB00
D680
D680
BB00
BB00
6D00
5A00
3600
2C00
ENDCHAR
STARTCHAR summation
ENCODING 8721
SWIDTH 108 0
DWIDTH 2 0
BBX 1 1 0 0
BITMAP
00
ENDCHAR
STARTCHAR minus
ENCODING 8722
SWIDTH 555 0
DWIDTH 11 0
BBX 9 4 1 7
BITMAP
FF80
0000
FF80
FF80
ENDCHAR
STARTCHAR radical
ENCODING 8730
SWIDTH 108 0
DWIDTH 2 0
BBX 1 1 0 0
BITMAP
00
ENDCHAR
STARTCHAR infinity
ENCODING 8734
SWIDTH 108 0
DWIDTH 2 0
BBX 1 1 0 0
BITMAP
00
ENDCHAR
STARTCHAR integral
ENCODING 8747
SWIDTH 362 0
DWIDTH 7 0
BBX 7 18 0 -1
BITMAP
0E
16
28
36
34
34
34
34
34
34
34
34
34
34
34
D8
E8
F0
ENDCHAR
STARTCHAR approxequal
ENCODING 8776
SWIDTH 665 0
DWIDTH 13 0
BBX 12 9 1 6
BITMAP
7F50
9FD0
E020
DFC0
0000
7F50
9FD0
E020
DFC0
ENDCHAR
STARTCHAR notequal
ENCODING 8800
SWIDTH 473 0
DWIDTH 9 0
BBX 9 18 0 -2
BITMAP
0680
0B00
0B00
0D00
7F80
7F80
1600
7F80
1A00
2C00
7F80
7F80
7F80
5800
5800
6800
7000
B000
ENDCHAR
STARTCHAR lessequal
ENCODING 8804
SWIDTH 108 0
DWIDTH 2 0
BBX 1 1 0 0
BITMAP
00
ENDCHAR
STARTCHAR greaterequal
ENCODING 8805
SWIDTH 108 0
DWIDTH 2 0
BBX 1 1 0 0
BITMAP
00
ENDCHAR
STARTCHAR lozenge
ENCODING 9674
SWIDTH 521 0
DWIDTH 10 0
BBX 9 14 1 0
BITMAP
2C00
3A00
5600
6D00
AB00
BB00
D680
D680
BB00
BB00
6D00
5A00
3600
2C00
ENDCHAR
STARTCHAR uniF8FF
ENCODING 63743
SWIDTH 108 0
DWIDTH 2 0
BBX 1 1 0 0
BITMAP
00
ENDCHAR
STARTCHAR uniFB01
ENCODING 64257
SWIDTH 962 0
DWIDTH 19 0
BBX 17 14 1 0
BITMAP
DFEB80
DFEB80
D80B80
DFEB80
D80B80
DFCB80
D80B80
DFCB80
DFCB80
D80B80
D80B80
D80B80
D80B80
D80B80
ENDCHAR
STARTCHAR uniFB02
ENCODING 64258
SWIDTH 1208 0
DWIDTH 24 0
BBX 23 14 1 0
BITMAP
DFEB80
DFEB80
D80B80
DFEB80
D80B80
DFCB80
D80B80
DFCB80
DFCB80
D80B80
D80B7E
D80B80
D80B7E
D80B7E
ENDCHAR
STARTCHAR .notdef
ENCODING -1
SWIDTH 108 0
DWIDTH 2 0
BBX 1 1 0 0
BITMAP
00
ENDCHAR
ENDFONT
